<svg xmlns="http://www.w3.org/2000/svg" xmlns:xlink="http://www.w3.org/1999/xlink" width="1880" height="1324" viewBox="0 0 1880 1324"><pattern x="46" y="26" width="446.6" height="259.2" patternUnits="userSpaceOnUse" id="v" viewBox="146.558 -378.061 446.64 259.184" overflow="visible"><g><path fill="none" d="M146.6-378h446.6v259H146.6z"/><g><path fill="#33922E" d="M525.4-187.4c5.5 4.6 10.7 12.5 11.4 22.8 1-10.3 3.2-18.2 8.2-24 0 0-6.3 3-8.6 9.2-3-5.3-11-8-11-8zM511.4-238.3c1.2 6 6.3 11.2 13 13.8-2.8-7-1.8-13.8 2-19.8-.8 7.8 1.5 13.2 6 18-1.5-4.8-1.4-9.2 1-13.8-1 8.3 6 12.6 15.6 18.3 12.6 7.6 17.2 16 19.2 27.2-3.4-6.8-10-13-28-17.3-22.2-5-30.2-12.4-28.8-26.5z"/><linearGradient id="a" gradientUnits="userSpaceOnUse" x1="-38891.9" y1="-53399.1" x2="-38915.2" y2="-53391.2" gradientTransform="matrix(1 0 0 -1 39406.6 -53548.4)"><stop offset=".2" stop-color="#F7A600"/><stop offset=".8" stop-color="#FDC300"/></linearGradient><path fill="url(#a)" d="M511.7-146c-4.7-4.6-7-12.2-7.3-21.8-.5-12.5-5.4-17.6-13.3-18.5 12 4.6 4.5 17 8 26-6.4-5-4.4-20.8-17.6-21.6 9.8 3.3 2.8 16.8 9.3 24.6-7.8 0-11.4 6.2-21.6 3.3 4.8 3.5 10 5.8 19 5.8-6.3 4-9 8.6-11.3 15.3 10-10.4 24.8-14.5 35-13z"/><radialGradient id="b" cx="-38813.4" cy="-53429.6" r="133.4" gradientTransform="matrix(1 0 0 -1 39406.6 -53548.4)" gradientUnits="userSpaceOnUse"><stop offset=".3" stop-color="#5EA62B"/><stop offset=".8" stop-color="#86BC25"/></radialGradient><path fill="url(#b)" d="M629-111.6c29.5 4 46.3 20.8 49.2 36.5-4-9.3-13-15.3-23.6-18.7 10.6 14 7.2 32 21 41.7-10.3-11-7-24.4-14.8-36.7 12.3 7 14 16.7 17 27 4.4 16 11.6 20.2 17.2 22.3-11.7.5-28.6-4.5-36.7-20-8.6-16.6-1.5-34.5-22.5-44 9.6 8.2 14.7 19.7 8.7 34.6 2.2-22-20.7-25.5-24.3-40.5-.7 11.5 7 21.2 14.5 26-10.3-3.5-19.2-9-23.4-22-7 21.5 5.3 38.5 13 38.5 2.5 0 4.4-1.6 4.4-4 0-6.6-11.6-6.6-14.6-19 5.5 10.8 25.7 9 25.7 20.8 0 9.7-13.7 14-22.4 8 6.4 8.3 21.3 8.6 25.6-1.5.5 4.4-1.4 10.8-7.6 13.2-7 2.7-13.5-2.5-13.5-2.5 7.6 11 21 3.7 34 4 11 0 18 5.7 21.3 11-3-1.4-4.6-1.8-7.6-2 6.3 4 10.8 13 9 21.6-1.3-6.3-8.6-10.7-22.3-11.6-15.6-1-23.8-3.6-29-9.3 11 4.8 28.8-2 40.8 6-7.4-8.7-24-6.2-35.7-8-20.7-3.4-33.3-38.4-31.7-53.7-5.6 23.4 9.5 36.2 12.8 49 3.6 14.2-3.4 24-10 29 10.3-15.5-7.4-24.7-4.5-44.4-5.2 19 4.5 24.5 4.5 34.5 0 9.7-8.6 13-10.3 25.5-1.7-12.6-10.3-15.8-10.3-25.5 0-10 9.6-15.5 4.3-34.6 2.8 19.6-15 28.8-4.6 44.2-6.6-5-13.6-14.7-10-28.8 3.4-13 18.5-25.7 13-49 1.5 15.2-11 50.2-31.8 53.5-12 1.8-28.4-.7-36 8 12.2-8 30-1.2 41-6-5.2 5.6-13.4 8-29 9.2-13.8 1-21 5.3-22.3 11.6-1.8-8.7 2.7-17.6 9-21.5-3 0-4.6.5-7.6 2 3.3-5.4 10.5-11 21.4-11.2 13 0 26.4 7.2 34-3.8 0 0-6.4 5.2-13.4 2.5-6.2-2.4-8-8.8-7.5-13.2 4.3 10 19.2 9.8 25.6 1.5-8.6 6-22.3 1.7-22.3-8 0-12 20.2-10 25.6-20.8-3 12.4-14.6 12.4-14.6 19 0 2.4 2 4 4.5 4 7.6 0 19.8-17 13-38.4-4.3 12.8-13.2 18.4-23.5 21.8 7.4-4.7 15.2-14.4 14.5-26-3.7 15-26.5 18.6-24.3 40.6-6-15-1-26.4 8.6-34.5-21 9.4-14 27.3-22.5 43.8-8 15.6-25 20.6-36.6 20 5.6-2 12.8-6.2 17.2-22 3-10.5 4.7-20.3 17-27.2C518-76.4 521-63 510.6-52c14-9.8 10.6-27.7 21.2-41.7-10.6 3.4-19.7 9.4-23.6 18.6 3-15.8 19.7-32.6 49.2-36.6C527-113 521.2-96 506-95.4c-9.8.3-18.2-8.4-28-13.7 12 3 31 11.2 41-2.2 0 0-6.2 5.2-18.2 3.7-12.3-1.6-23.5-9.4-54.2-11.4 30.7-1.8 42-9.7 54.2-11.2 12-1.6 18.2 3.7 18.2 3.7-10-13.5-29-5.2-41-2 9.8-5.4 18.2-14.2 28-13.8 15.2.6 21 17.4 51.4 16-29.5-4-46.3-20.6-49.2-36.4 4 9.2 13 15.2 23.6 18.6-10.6-14-7.2-32-21-41.8 10.3 11 7 24.5 14.8 36.8-12.3-7-14-16.7-17-27.2-4.4-15.8-11.6-20-17.2-22.2 11.7-.4 28.6 4.6 36.7 20 8.7 16.6 1.6 34.5 22.6 44-9.6-8-14.7-19.6-8.7-34.5-2.3 22 20.5 25.6 24.2 40.5.7-11.5-7-21.2-14.5-26 10.3 3.5 19.2 9 23.4 22 7-21.4-5.2-38.5-12.8-38.5-2.6 0-4.5 1.7-4.5 4.2 0 6.4 11.6 6.4 14.6 18.8-5.4-10.8-25.6-8.8-25.6-20.7 0-9.8 13.7-14 22.4-8-6.3-8.4-21.2-8.6-25.5 1.4-.6-4.3 1.3-10.8 7.5-13 7-2.8 13.5 2.4 13.5 2.4-7.7-11-21-3.6-34-3.8-11-.2-18.2-6-21.4-11.2 3 1.5 4.7 2 7.7 2-6.3-4-10.8-13-9-21.5 1.3 6.2 8.5 10.6 22.3 11.6 15.6 1.2 23.8 3.7 29 9.4-11-5-28.8 2-41-6 7.6 8.5 24 6 36 8 20.6 3.3 33.2 38.2 31.6 53.6 5.6-23.5-9.5-36.2-12.8-49.2-3.7-14 3.3-23.8 10-28.8-10.4 15.4 7.3 24.7 4.5 44.4 5.3-19.2-4.4-24.7-4.4-34.6 0-9.8 8.5-13 10.2-25.6 1.7 12.6 10.3 15.8 10.3 25.6 0 10-9.7 15.4-4.4 34.6-2.8-19.7 15-29 4.7-44.4 6.5 5 13.5 14.7 10 28.8-3.4 13-18.5 25.7-13 49.2-1.5-15.4 11-50.3 31.8-53.7 11.8-1.8 28.3.6 35.7-8-12 8-29.7 1-41 6 5.4-5.6 13.6-8 29.2-9.2 13.7-1 21-5.3 22.3-11.5 1.8 8.6-2.7 17.5-9 21.4 3 0 4.6-.5 7.6-2-3.2 5.3-10.4 11-21.3 11.2-13 .2-26.4-7.2-34 4 0 0 6.4-5.3 13.4-2.6 6.2 2.3 8 8.8 7.5 13-4.4-10-19.3-9.7-25.7-1.3 8.7-6 22.4-1.8 22.4 8 0 12-20.2 10-25.6 20.7 3-12.4 14.7-12.4 14.7-18.8 0-2.5-2-4.2-4.5-4.2-7.6 0-19.8 17-13 38.5 4.3-13 13.2-18.5 23.5-22-7.4 4.8-15.2 14.5-14.5 26 3.6-15 26.5-18.5 24.3-40.4 6 15 1 26.5-8.7 34.5 21-9.4 14-27.3 22.5-43.8 8-15.5 25-20.5 36.7-20-5.6 2-12.8 6.3-17.2 22-3 10.6-4.7 20.4-17 27.3 7.7-12.3 4.5-25.7 15-36.8-14 10-10.6 27.7-21.2 41.7 10.6-3.5 19.7-9.5 23.6-18.7-3 15.8-19.7 32.5-49.2 36.5 30.4 1.3 36.2-15.5 51.5-16 9.7-.5 18 8.3 28 13.6-12-3-31-11.4-41 2 0 0 6-5.2 18-3.6 12.4 1.5 23.6 9.4 54.3 11.3-30.7 2-42 10-54.2 11.5-12 1.5-18.2-3.7-18.2-3.7 10 13.4 29 5.2 41 2-9.8 5.4-18.2 14-28 13.8-15.2-.6-21-17.5-51.4-16.2zm33.4-7.3c4.6 1.4 8.6 4 14.5 4 7 0 11-3 16.6-4-5.6-1-9.6-3.6-16.7-3.6-6 0-10 2.5-14.6 3.7zM590.2-209c0 5 3 8.4 3 12 0-3.6 3-7 3-12 0-4.6-2.2-6.6-3-11.4-.8 4.8-3 6.8-3 11.4zM524-119c-4.6-1-8.6-3.6-14.5-3.6-7 0-11 2.7-16.7 3.7 5.6 1 9.6 4 16.7 4 6 0 10-2.6 14.5-4zm72.2 90.4c0-5-3-8.4-3-12 0 3.6-3 7-3 12 0 4.6 2.2 6.7 3 11.5.8-5 3-7 3-11.6zm42-90.3c-10 0-24-5-35-3 3.6-2 5-3.6 7.6-6.6-4.4.4-6.8.8-10 2.3 2.5-6 3-9.4 3.6-15.5-3 3.6-4.7 5.8-6.6 10.7.7-12.5-4.2-15.4-4.6-32-.4 16.6-5.3 19.5-4.6 32-2-5-3.5-7.2-6.6-10.8.6 6 1 9.5 3.7 15.5-3.3-1.5-5.7-2-10-2.3 2.4 3 4 4.6 7.4 6.7-10.8-2-25 3-35 3 10 0 24.2 5 35 3-3.4 2.2-5 3.8-7.4 7 4.4-.6 6.8-1 10-2.4-2.5 6-3 9.4-3.6 15.4 3-3.6 4.7-5.7 6.6-10.6-.7 12.4 4.2 15.2 4.6 31.7.4-16.4 5.3-19.2 4.6-31.6 2 5 3.5 7 6.6 10.6-.6-6-1-9.4-3.7-15.4 3.3 1.5 5.7 1.8 10 2.3-2.4-3.2-4-4.8-7.4-7 11 2 25-3 35-3z"/><linearGradient id="c" gradientUnits="userSpaceOnUse" x1="55266.8" y1="-53343.3" x2="55266.8" y2="-53315.2" gradientTransform="rotate(180 27915.5 -26774.2)"><stop offset=".2" stop-color="#F7A600"/><stop offset=".8" stop-color="#FDC300"/></linearGradient><path fill="url(#c)" d="M538.3-240c2.7 13.7 25.4 16 30.3 34 3.8-19.2 21.3-20 21.5-33.2-3 7.8-10.7 5.8-15.7 12 .8-6 4.6-11.8 12.3-15-7.6-1-15.6 2-19 9.6-2.6-4.2-3-8.5-.7-14-5 3.8-7.6 9.4-5.8 16.7-7.3-7.2-18-3-23-10z"/><path fill="#FDC300" d="M611.4-119c-4.2-.5-9.4-3-14-1 2.2-2 1-3.6 2.4-5.3-2 1.4-3.5.5-5 2.8 1.6-5.4-.5-8.2-1.6-14.2-1 6-3.2 8.8-1.6 14.2-1.5-2.3-3-1.4-5-2.8 1.4 1.7.2 3.4 2.5 5.2-4.6-2-9.8.5-14 1 4.2.8 9.4 3.3 14 1.3-2.2 1.8-1 3.6-2.4 5.2 2-1.3 3.5-.5 5-2.7-1.6 5.3.5 8 1.6 14 1-6 3.2-8.7 1.6-14 1.5 2.2 3 1.4 5 2.7-1.4-1.6-.2-3.4-2.5-5.2 4.7 2 10-.5 14-1.2z"/></g><g><linearGradient id="d" gradientUnits="userSpaceOnUse" x1="55605.9" y1="-53399.1" x2="55582.6" y2="-53391.2" gradientTransform="rotate(180 27915.5 -26774.2)"><stop offset=".2" stop-color="#F7A600"/><stop offset=".8" stop-color="#FDC300"/></linearGradient><path fill="url(#d)" d="M228-146c4.8-4.6 7-12.2 7.4-21.8.4-12.5 5.4-17.6 13.3-18.5-11.8 4.6-4.5 17-8 26 6.5-5 4.4-20.8 17.7-21.6-9.8 3.3-3 16.8-9.3 24.6 8 0 11.5 6.2 21.6 3.3-4.7 3.5-10 5.8-18.8 5.8 6.2 4 9 8.6 11.3 15.3-10-10.4-24.8-14.5-35-13z"/><path fill="#33922E" d="M214.4-187.4c-5.6 4.6-10.7 12.5-11.5 22.8-1.2-10.3-3.3-18.2-8.3-24 0 0 6.3 3 8.6 9.2 3-5.3 11-8 11-8zM228.4-238.3c-1.3 6-6.4 11.2-13 13.8 2.7-7 1.7-13.8-2-19.8.8 7.8-1.6 13.2-6 18 1.5-4.8 1.3-9.2-1-13.8 1 8.3-6.2 12.6-15.6 18.3-12.7 7.6-17.3 16-19.2 27.2 3.4-6.8 10-13 27.8-17.3 22.3-5 30.4-12.4 29-26.5z"/><linearGradient id="e" gradientUnits="userSpaceOnUse" x1="-39231" y1="-53343.3" x2="-39231" y2="-53315.2" gradientTransform="matrix(1 0 0 -1 39406.6 -53548.4)"><stop offset=".2" stop-color="#F7A600"/><stop offset=".8" stop-color="#FDC300"/></linearGradient><path fill="url(#e)" d="M201.4-240c-2.6 13.7-25.3 16-30.3 34-3.6-19.2-21-20-21.4-33.2 3.2 7.8 10.8 5.8 16 12-1-6-4.7-11.8-12.5-15 7.8-1 15.7 2 19.2 9.6 2.6-4.2 2.8-8.5.7-14 4.6 3.8 7.4 9.4 5.6 16.7 7.2-7.2 18-3 22.8-10z"/><radialGradient id="f" cx="-39260" cy="-53429.6" r="133.4" gradientTransform="matrix(1 0 0 -1 39406.6 -53548.4)" gradientUnits="userSpaceOnUse"><stop offset=".3" stop-color="#5EA62B"/><stop offset=".8" stop-color="#86BC25"/></radialGradient><path fill="url(#f)" d="M182.4-111.6c29.4 4 46.2 20.8 49 36.5-3.8-9.3-12.8-15.3-23.5-18.7 10.6 14 7 32 21 41.7-10.3-11-7-24.4-14.8-36.7 12.2 7 14 16.7 17 27 4.4 16 11.5 20.2 17.2 22.3-11.7.5-28.7-4.5-36.8-20-8.6-16.6-1.4-34.5-22.5-44 9.7 8.2 15 19.7 8.8 34.6 2.3-22-20.6-25.5-24.3-40.5-.6 11.5 7.2 21.2 14.6 26-10.2-3.5-19-9-23.3-22-7 21.5 5.3 38.5 13 38.5 2.5 0 4.4-1.6 4.4-4 0-6.6-11.6-6.6-14.5-19C172.8-79 193-80.8 193-69c0 9.7-13.6 14-22.3 8 6.4 8.3 21.2 8.6 25.5-1.5.7 4.4-1.3 10.8-7.4 13.2-7 2.7-13.5-2.5-13.5-2.5 7.6 11 21 3.7 34 4 11 0 18.2 5.7 21.4 11-3-1.4-4.7-1.8-7.7-2 6.3 4 11 13 9 21.6-1.2-6.3-8.5-10.7-22.3-11.6-15.5-1-23.8-3.6-29-9.3 11 4.8 29-2 41 6-7.5-8.7-24-6.2-35.8-8-20.8-3.4-33.4-38.4-31.8-53.7-5.7 23.4 9.4 36.2 12.8 49 3.6 14.2-3.4 24-10 29 10.3-15.5-7.4-24.7-4.6-44.4-5.2 19 4.4 24.5 4.4 34.5 0 9.7-8.5 13-10.2 25.5-1.7-12.6-10.3-15.8-10.3-25.5 0-10 9.6-15.5 4.4-34.6 2.8 19.6-15 28.8-4.6 44.2-6.5-5-13.5-14.7-10-28.8 3.5-13 18.6-25.7 13-49 1.5 15.2-11 50.2-31.8 53.5-11.8 1.8-28.2-.7-35.7 8 12-8 29.8-1.2 41-6-5.3 5.6-13.6 8-29 9.2-14 1-21.2 5.3-22.5 11.6-1.8-8.7 2.8-17.6 9-21.5-3 0-4.6.5-7.5 2 3-5.4 10.4-11 21.2-11.2 13.2 0 26.5 7.2 34-3.8 0 0-6.4 5.2-13.4 2.5-6-2.4-8-8.8-7.4-13.2 4.2 10 19 9.8 25.4 1.5-8.7 6-22.3 1.7-22.3-8 0-12 20.3-10 25.6-20.8-3 12.4-14.6 12.4-14.6 19 0 2.4 2 4 4.6 4 7.5 0 19.8-17 13-38.4-4.3 12.8-13.3 18.4-23.6 21.8 7.4-4.7 15.2-14.4 14.6-26-3.7 15-26.6 18.6-24.3 40.6-6-15-1-26.4 8.7-34.5C83-94 90-76 81.5-59.5c-8 15.6-25 20.6-36.8 20 5.7-2 12.8-6.2 17.2-22C64.7-72 66.6-82 79-88.8 71.3-76.4 74.4-63 64-52c14-9.8 10.6-27.7 21.2-41.7-10.6 3.4-19.7 9.4-23.6 18.7 3-15.8 19.7-32.6 49-36.6-30.2-1.3-36 15.6-51.3 16.2-9.7.3-18.2-8.4-28-13.7 12 3 31 11.2 41-2.2 0 0-6 5.2-18.2 3.7C42-109 30.8-117 0-119c30.7-1.8 41.8-9.7 54-11.2 12.2-1.6 18.4 3.7 18.4 3.7-10-13.5-29-5.2-41.2-2 10-5.4 18.4-14.2 28-13.8 15.3.6 21.2 17.4 51.5 16.2-29.4-4.2-46.2-21-49-36.7 3.8 9.3 13 15.2 23.5 18.6-10.6-14-7.2-32-21-41.8 10.2 11 7 24.5 14.8 36.8-12.3-7-14.2-16.7-17-27.2-4.5-15.8-11.6-20-17.3-22.2 11.7-.4 28.7 4.6 36.8 20 8.6 16.7 1.4 34.6 22.5 44-9.6-8-14.8-19.6-8.7-34.5-2.3 22 20.6 25.6 24.3 40.5.6-11.5-7.2-21.2-14.6-26 10.3 3.5 19.3 9 23.5 22 7-21.4-5.4-38.5-13-38.5-2.6 0-4.5 1.7-4.5 4.2 0 6.4 11.7 6.4 14.6 18.8-5.3-10.8-25.5-8.8-25.5-20.7 0-9.8 13.7-14 22.4-8-6.4-8.4-21.2-8.6-25.5 1.4-.8-4.3 1.2-10.8 7.3-13 7-2.8 13.5 2.4 13.5 2.4-7.6-11-21-3.6-34-3.8-11-.2-18.2-6-21.3-11.2 3 1.5 4.6 2 7.6 2-6.2-4-10.8-13-9-21.5 1.3 6.2 8.6 10.6 22.4 11.6 15.5 1.2 23.8 3.7 29 9.4-11-5-28.8 2-41-6 7.6 8.5 24 6 35.8 8 20.7 3.3 33.3 38.2 31.7 53.6 5.6-23.4-9.5-36.2-13-49.2-3.5-14 3.5-23.8 10-28.8-10.2 15.4 7.5 24.7 4.7 44.4 5.2-19.2-4.4-24.7-4.4-34.6 0-9.8 8.6-13 10.3-25.6 1.7 12.6 10.2 15.8 10.2 25.6 0 10-9.6 15.4-4.4 34.6-2.8-19.7 15-29 4.6-44.4 6.6 5 13.6 14.7 10 28.8-3.4 13-18.5 25.8-12.8 49.2-1.6-15.4 11-50.3 31.7-53.7 11.7-1.8 28.2.6 35.6-8-12 8-29.8 1-41 6 5.3-5.6 13.6-8 29-9.2 14-1 21.2-5.3 22.5-11.5 2 8.6-2.7 17.5-9 21.4 3 0 4.7-.5 7.7-2-3.2 5.3-10.5 11-21.3 11.2-13.2.2-26.5-7.2-34 4 0 0 6.4-5.3 13.4-2.6 6 2.3 8 8.8 7.4 13-4.3-10-19-9.7-25.5-1.3 8.7-6 22.3-1.8 22.3 8 0 12-20.2 10-25.5 20.7 3-12.4 14.6-12.4 14.6-18.8 0-2.5-1.8-4.2-4.4-4.2-7.6 0-20 17-13 38.5 4.3-13 13.2-18.5 23.5-22-7.3 4.8-15 14.5-14.5 26 3.7-15 26.6-18.5 24.3-40.4 6 15 1 26.5-8.7 34.5 21.2-9.3 14-27.2 22.6-43.8 8-15.5 25-20.5 36.8-20-5.7 2-12.8 6.3-17.2 22-3 10.6-4.8 20.4-17 27.3 7.6-12.3 4.5-25.7 15-36.8-14 10-10.6 27.7-21.3 41.7 10.6-3.5 19.6-9.4 23.5-18.7-3 15.8-19.7 32.5-49 36.6 30.2 1 36-15.7 51.4-16.3 9.5-.4 18 8.4 28 13.7-12.2-3-31.2-11.4-41.3 2 0 0 6.2-5.2 18.3-3.6 12.3 1.5 23.5 9.4 54 11.3-30.5 2-41.7 10-54 11.5-12 1.5-18.3-3.7-18.3-3.7 10 13.4 29 5.2 41.2 2-10 5.4-18.5 14-28 13.8-15.4-.6-21.3-17.5-51.6-16.2zm33.4-7.3c4.6 1.4 8.6 4 14.4 4 7.2 0 11-3 16.8-4-5.7-1-9.6-3.6-16.8-3.6-5.8 0-9.8 2.5-14.4 3.7zM143.5-209c0 5 3 8.4 3 12 0-3.6 3-7 3-12 0-4.6-2.2-6.6-3-11.4-.7 4.8-3 6.8-3 11.4zm-66 90.3c-4.8-1-8.8-3.6-14.6-3.6-7.2 0-11.2 2.7-17 3.7 5.8 1 9.8 4 17 4 5.7 0 9.7-2.6 14.4-4zm72 90.4c0-5-3-8.4-3-12 0 3.6-3 7-3 12 0 4.6 2.3 6.7 3 11.5.8-5 3-7 3-11.6zm42-90.3c-9.8 0-24-5-34.8-3 3.4-2 5-3.6 7.4-6.6-4.3.4-6.6.8-10 2.3 2.7-6 3.2-9.4 3.7-15.5-3 3.6-4.6 5.8-6.5 10.7.7-12.5-4.3-15.4-4.6-32-.4 16.6-5.4 19.5-4.7 32-2-5-3.5-7.2-6.6-10.8.5 6 1 9.5 3.7 15.5-3.2-1.5-5.6-2-10-2.3 2.5 3 4 4.6 7.4 6.7-10.8-2-25 3-35 3 10 0 24.2 5 35 3-3.4 2.2-5 3.8-7.4 7 4.4-.6 6.8-1 10-2.4-2.6 6-3 9.4-3.6 15.4 3-3.6 4.6-5.7 6.5-10.6-.8 12.4 4.2 15.2 4.6 31.7.3-16.4 5.3-19.2 4.6-31.6 2 5 3.5 7 6.5 10.6-.5-6-1-9.4-3.7-15.4 3.4 1.5 5.7 1.8 10 2.3-2.3-3.2-4-4.8-7.3-7 10.8 2 25-3 35-3z"/><path fill="#FDC300" d="M164.8-119c-4.3-.5-9.4-3-14.2-1 2.4-2 1.2-3.6 2.6-5.3-2 1.4-3.5.5-5 2.8 1.5-5.4-.5-8.2-1.6-14.2-1 6-3.2 8.8-1.7 14.2-1.6-2.3-3-1.4-5-2.8 1.3 1.7 0 3.4 2.5 5.2-4.8-2-10 .5-14.2 1 4.3.8 9.4 3.3 14.2 1.3-2.4 1.8-1.2 3.6-2.6 5.2 2-1.3 3.4-.5 5-2.7-1.6 5.3.5 8 1.6 14 1-6 3-8.7 1.6-14 1.5 2.2 3 1.4 5 2.7-1.4-1.6-.2-3.4-2.6-5.2 4.8 2 10-.5 14.2-1.2z"/></g><g><linearGradient id="g" gradientUnits="userSpaceOnUse" x1="55202.8" y1="36770.9" x2="55202.8" y2="36799" gradientTransform="matrix(-1 0 0 1 55767 -37062.7)"><stop offset=".2" stop-color="#F7A600"/><stop offset=".8" stop-color="#FDC300"/></linearGradient><path fill="url(#g)" d="M538.3-256.8c2.7-13.8 25.4-16.3 30.3-34 3.8 19 21.3 19.8 21.5 33-3-7.7-10.7-5.7-15.7-12 .8 6 4.6 11.8 12.3 15-7.6 1-15.6-1.8-19-9.5-2.6 4-3 8.4-.7 13.8-5-3.6-7.6-9.3-5.8-16.5-7.3 7.2-18 3.2-23 10.2z"/><path fill="#33922E" d="M525.4-309.6c5.5-4.5 10.7-12.4 11.4-22.7 1 10.2 3.2 18 8.2 24 0 0-6.3-3-8.6-9.2-3 5.2-11 8-11 8zM511.4-258.7c1.2-6 6.3-11.2 13-13.7-2.8 7-1.8 13.8 2 19.8-.8-7.8 1.5-13.2 6-18-1.5 4.8-1.4 9.2 1 13.8-1-8.5 6-12.8 15.6-18.4 12.6-7.6 17.2-16 19.2-27.3-3.4 7-10 13.2-28 17.3-22.2 5.2-30.2 12.4-28.8 26.5z"/><radialGradient id="h" cx="-38813.4" cy="-53170.4" r="133.4" gradientTransform="matrix(1 0 0 -1 39406.6 -53548.4)" gradientUnits="userSpaceOnUse"><stop offset=".3" stop-color="#5EA62B"/><stop offset=".8" stop-color="#86BC25"/></radialGradient><path fill="url(#h)" d="M629-370.8c29.5 4 46.3 20.8 49.2 36.6-4-9.3-13-15.3-23.6-18.7 10.6 14 7.2 32 21 41.8-10.3-11-7-24.4-14.8-36.7 12.3 7 14 16.8 17 27.2 4.4 16 11.6 20 17.2 22.2-11.7.5-28.6-4.5-36.7-20-8.6-16.6-1.5-34.5-22.5-43.8 9.6 8 14.7 19.5 8.7 34.4 2.2-22-20.7-25.5-24.3-40.5-.7 11.5 7 21.2 14.5 26-10.3-3.4-19.2-9-23.4-22-7 21.5 5.3 38.6 13 38.6 2.5 0 4.4-1.6 4.4-4 0-6.6-11.6-6.6-14.6-19 5.5 11 25.7 9 25.7 20.8 0 9.7-13.7 14-22.4 8 6.4 8.3 21.3 8.6 25.6-1.4.5 4.3-1.4 10.7-7.6 13-7 2.8-13.5-2.4-13.5-2.4 7.6 11 21 3.7 34 4 11 0 18 5.7 21.3 11-3-1.4-4.6-1.8-7.6-2 6.3 4 10.8 13 9 21.6-1.3-6.2-8.6-10.7-22.3-11.6-15.6-1-23.8-3.6-29-9.3 11 5 28.8-2 40.8 6-7.4-8.5-24-6-35.7-8-20.7-3.3-33.3-38.3-31.7-53.6-5.6 23.5 9.5 36.3 12.8 49.2 3.6 14.2-3.4 23.8-10 28.8 10.3-15.4-7.4-24.6-4.5-44.3-5.2 19.2 4.5 24.6 4.5 34.6 0 9.7-8.6 13-10.3 25.5-1.7-12.5-10.3-15.8-10.3-25.5 0-10 9.6-15.4 4.3-34.6 2.8 19.7-15 29-4.6 44.3-6.6-5-13.6-14.6-10-28.8 3.4-13 18.5-25.7 13-49 1.5 15.2-11 50.2-31.8 53.5-12 2-28.4-.5-36 8 12.2-8 30-1 41-6-5.2 5.7-13.4 8.2-29 9.3-13.8 1-21 5.4-22.3 11.6-1.8-8.7 2.7-17.6 9-21.5-3 .2-4.6.6-7.6 2 3.3-5.3 10.5-11 21.4-11 13-.3 26.4 7 34-4 0 0-6.4 5.2-13.4 2.5-6.2-2.4-8-8.8-7.5-13 4.3 10 19.2 9.6 25.6 1.3-8.6 6-22.3 1.7-22.3-8 0-12 20.2-10 25.6-20.8-3 12.4-14.6 12.4-14.6 19 0 2.4 2 4 4.5 4 7.6 0 19.8-17 13-38.4-4.3 12.8-13.2 18.5-23.5 21.8 7.4-4.7 15.2-14.4 14.5-26-3.7 15-26.5 18.6-24.3 40.6-6-15-1-26.4 8.6-34.4-21 9.3-14 27.2-22.5 43.7-8 15.6-25 20.6-36.6 20 5.6-2 12.8-6.2 17.2-22 3-10.5 4.7-20.3 17-27.2-7.7 12.4-4.5 25.8-15 36.8 14-9.8 10.6-27.7 21.2-41.7-10.6 3.5-19.7 9.5-23.6 18.8 3-15.8 19.7-32.6 49.2-36.6-30.4-1.3-36.2 15.6-51.5 16.2-9.8.4-18.2-8.4-28-13.7 12 3 31 11.3 41-2 0 0-6.2 5-18.2 3.6-12.3-1.6-23.5-9.4-54.2-11.4 30.7-2 42-10 54.2-11.4 12-1.6 18.2 3.7 18.2 3.7-10-13.4-29-5.2-41-2 9.8-5.4 18.2-14.2 28-13.8 15.2.6 21 17.5 51.4 16.2-29.5-4-46.3-20.8-49.2-36.6 4 9.4 13 15.3 23.6 18.7-10.6-14-7.2-31.8-21-41.7 10.3 11 7 24.5 14.8 36.8-12.3-7-14-16.7-17-27.2-4.4-15.8-11.6-20-17.2-22 11.7-.6 28.6 4.4 36.7 20 8.7 16.5 1.6 34.4 22.6 43.7-9.6-8-14.7-19.5-8.7-34.4-2.3 21.8 20.5 25.4 24.2 40.4.7-11.6-7-21.3-14.5-26 10.3 3.4 19.2 9 23.4 22 7-21.5-5.2-38.6-12.8-38.6-2.6 0-4.5 1.7-4.5 4.2 0 6.4 11.6 6.4 14.6 18.8-5.4-10.8-25.6-8.8-25.6-20.7 0-9.7 13.7-14 22.4-8-6.3-8.2-21.2-8.5-25.5 1.5-.6-4.3 1.3-10.7 7.5-13 7-2.8 13.5 2.4 13.5 2.4-7.7-11-21-3.8-34-4-11-.2-18.2-6-21.4-11.2 3 1.5 4.7 2 7.7 2-6.3-4-10.8-13-9-21.5 1.3 6.2 8.5 10.7 22.3 11.6 15.6 1 23.8 3.5 29 9.2-11-5-28.8 2-41-6 7.6 8.5 24 6 36 8 20.6 3.3 33.2 38.2 31.6 53.6 5.6-23.4-9.5-36.2-12.8-49-3.7-14.3 3.3-24 10-29-10.4 15.5 7.3 24.7 4.5 44.4 5.3-19.2-4.4-24.7-4.4-34.6 0-9.7 8.5-13 10.2-25.5 1.7 12.6 10.3 16 10.3 25.6 0 10-9.7 15.4-4.4 34.6-2.8-19.7 15-29 4.7-44.3 6.5 4.8 13.5 14.5 10 28.7-3.4 13-18.5 25.7-13 49-1.5-15.3 11-50.2 31.8-53.5 11.8-2 28.3.5 35.7-8-12 8-29.7 1-41 6 5.4-5.7 13.6-8.2 29.2-9.3 13.7-1 21-5.5 22.3-11.7 1.8 8.6-2.7 17.6-9 21.4 3 0 4.6-.4 7.6-2-3.2 5.4-10.4 11-21.3 11.3-13 .2-26.4-7-34 4 0 0 6.4-5.3 13.4-2.6 6.2 2.4 8 8.8 7.5 13-4.4-10-19.3-9.6-25.7-1.3 8.7-6 22.4-1.7 22.4 8 0 12-20.2 10-25.6 20.8 3-12.4 14.7-12.4 14.7-18.8 0-2.5-2-4.2-4.5-4.2-7.6 0-19.8 17-13 38.5 4.3-13 13.2-18.5 23.5-21.8-7.4 4.6-15.2 14.3-14.5 26 3.6-15 26.5-18.7 24.3-40.6 6 14.8 1 26.3-8.7 34.3 21-9.3 14-27.2 22.5-43.7 8-15.6 25-20.6 36.7-20-5.6 2-12.8 6.2-17.2 22-3 10.5-4.7 20.3-17 27.2 7.7-12.3 4.5-25.7 15-36.8-14 10-10.6 27.7-21.2 41.7 10.6-3.4 19.7-9.3 23.6-18.6-3 16-19.7 32.6-49.2 36.7 30.4 1.3 36.2-15.6 51.5-16.2 9.7-.4 18 8.4 28 13.7-12-3-31-11.3-41 2 0 0 6-5.2 18-3.6C698-388 709.2-380 740-378c-30.7 2-42 9.7-54.2 11.3-12 1.5-18.2-3.7-18.2-3.7 10 13.4 29 5.2 41 2-9.8 5.4-18.2 14.2-28 13.8-15.2-.6-21-17.5-51.4-16.2zm33.4-7.3c4.6 1.2 8.6 3.7 14.5 3.7 7 0 11-2.7 16.6-3.8-5.6-1-9.6-3.8-16.7-3.8-6 0-10 2.5-14.6 3.7zm-72.2-90.4c0 5.2 3 8.4 3 12.2 0-3.8 3-7 3-12.2 0-4.5-2.2-6.6-3-11.4-.8 4.8-3 7-3 11.4zM524-378c-4.6-1.3-8.6-3.8-14.5-3.8-7 0-11 2.7-16.7 3.7 5.6 1 9.6 3.7 16.7 3.7 6 0 10-2.5 14.5-3.8zm72.2 90.2c0-5-3-8.3-3-12 0 3.7-3 7-3 12 0 4.6 2.2 6.7 3 11.5.8-4.8 3-7 3-11.5zm42-90.3c-10 0-24-5-35-3 3.6-2.2 5-3.8 7.6-6.8-4.4.4-6.8.8-10 2.3 2.5-6 3-9.4 3.6-15.5-3 3.6-4.7 5.8-6.6 10.7.7-12.4-4.2-15.3-4.6-31.8-.4 16.4-5.3 19.3-4.6 31.7-2-5-3.5-7-6.6-10.7.6 6 1 9.5 3.7 15.5-3.3-1.5-5.7-2-10-2.3 2.4 3 4 4.6 7.4 6.7-10.8-2-25 3-35 3 10 0 24.2 5 35 3-3.4 2-5 3.6-7.4 6.7 4.4-.4 6.8-.8 10-2.3-2.5 6-3 9.4-3.6 15.4 3-3.5 4.7-5.7 6.6-10.6-.7 12.4 4.2 15.2 4.6 31.7.4-16.6 5.3-19.4 4.6-31.8 2 5 3.5 7 6.6 10.6-.6-6-1-9.4-3.7-15.4 3.3 1.5 5.7 2 10 2.3-2.4-3-4-4.6-7.4-6.7 11 2 25-3 35-3z"/><linearGradient id="i" gradientUnits="userSpaceOnUse" x1="-38891.9" y1="36729.6" x2="-38915.2" y2="36737.5" gradientTransform="translate(39406.6 -37077.2)"><stop offset=".2" stop-color="#F7A600"/><stop offset=".8" stop-color="#FDC300"/></linearGradient><path fill="url(#i)" d="M511.7-351c-4.7 4.7-7 12.3-7.3 21.8-.5 12.6-5.4 17.7-13.3 18.6 12-4.6 4.5-17.2 8-26-6.4 5-4.4 20.8-17.6 21.5 9.8-3.3 2.8-16.8 9.3-24.6-7.8 0-11.4-6-21.6-3.2 4.8-3.7 10-6 19-6-6.3-3.8-9-8.6-11.3-15.3 10 10.5 24.8 14.6 35 13z"/><path fill="#FDC300" d="M611.4-378c-4.2-.7-9.4-3.3-14-1.3 2.2-1.8 1-3.5 2.4-5.2-2 1.4-3.5.5-5 2.8 1.6-5.3-.5-8.2-1.6-14.2-1 6-3.2 9-1.6 14.3-1.5-2.3-3-1.4-5-2.8 1.4 1.7.2 3.4 2.5 5.2-4.6-2-9.8.6-14 1.2 4.2.6 9.4 3 14 1.2-2.2 1.8-1 3.5-2.4 5.2 2-1.4 3.5-.5 5-2.8-1.6 5.3.5 8.2 1.6 14 1-6 3.2-8.7 1.6-14 1.5 2.3 3 1.4 5 2.8-1.4-1.7-.2-3.4-2.5-5.2 4.7 2 10-.6 14-1.3z"/></g><g><linearGradient id="j" gradientUnits="userSpaceOnUse" x1="55426.1" y1="36900.5" x2="55426.1" y2="36928.6" gradientTransform="matrix(-1 0 0 1 55767 -37062.7)"><stop offset=".2" stop-color="#F7A600"/><stop offset=".8" stop-color="#FDC300"/></linearGradient><path fill="url(#j)" d="M315-127.2c2.6-13.8 25.4-16.3 30.3-34 3.8 19 21.3 19.8 21.5 33-3.2-7.8-10.8-5.7-16-12 1 6 4.8 11.8 12.5 15-7.6 1-15.6-1.8-19-9.5-2.6 4-3 8.4-.8 13.8-4.7-3.5-7.5-9.2-5.6-16.4-7.4 7.2-18 3.2-23 10.2z"/><linearGradient id="k" gradientUnits="userSpaceOnUse" x1="-38943.7" y1="36900.5" x2="-38943.7" y2="36928.6" gradientTransform="translate(39342.6 -37062.7)"><stop offset=".2" stop-color="#F7A600"/><stop offset=".8" stop-color="#FDC300"/></linearGradient><path fill="url(#k)" d="M424.8-127.2c-2.7-13.8-25.4-16.3-30.3-34-3.8 19-21.3 19.8-21.6 33 3-7.8 10.8-5.7 15.8-12-.8 6-4.6 11.8-12.4 15 7.7 1 15.7-1.8 19-9.5 2.7 4 3 8.4.8 13.8 4.7-3.5 7.5-9.2 5.7-16.4 7 7.2 17.8 3.2 22.8 10.2z"/><linearGradient id="l" gradientUnits="userSpaceOnUse" x1="55382.6" y1="-53269.5" x2="55359.3" y2="-53261.6" gradientTransform="rotate(180 27915.5 -26774.2)"><stop offset=".2" stop-color="#F7A600"/><stop offset=".8" stop-color="#FDC300"/></linearGradient><path fill="url(#l)" d="M451.4-275.6c4.7-4.6 7-12.2 7.3-21.8C459-310 464-315 472-316c-11.8 4.7-4.4 17.2-8 26 6.5-4.8 4.4-20.7 17.7-21.4-9.8 3-2.8 16.6-9.3 24.5 7.8 0 11.4 6.2 21.5 3.3-4.8 3.6-10 6-19 6 6.4 3.8 9 8.5 11.4 15.3-10-10.6-24.8-14.7-35-13.2z"/><path fill="#33922E" d="M302-317c5.6 4.6 10.7 12.5 11.5 22.8 1-10.2 3.2-18 8.2-24 0 0-6.3 3-8.6 9.2-2.8-5.3-11-8-11-8zM288-367.8c1.3 6 6.4 11 13 13.7-2.7-7-1.7-14 2.2-20-1 8 1.4 13.3 5.7 18-1.4-4.7-1.3-9 1-13.7-1 8.4 6.2 12.8 15.6 18.4 12.7 7.6 17.3 16 19.3 27.2-3.6-7-10-13.2-28-17.4-22.3-5-30.4-12.4-29-26.4z"/><linearGradient id="m" gradientUnits="userSpaceOnUse" x1="-39115.2" y1="-53269.5" x2="-39138.5" y2="-53261.6" gradientTransform="matrix(1 0 0 -1 39406.6 -53548.4)"><stop offset=".2" stop-color="#F7A600"/><stop offset=".8" stop-color="#FDC300"/></linearGradient><path fill="url(#m)" d="M288.3-275.6c-4.6-4.6-7-12.2-7.2-21.8-.4-12.5-5.3-17.6-13.2-18.5 11.8 4.7 4.4 17.2 8 26-6.5-4.8-4.5-20.7-17.7-21.4 9.8 3 3 16.6 9.3 24.5-7.8 0-11.4 6.2-21.5 3.3 4.7 3.6 10 6 19 6-6.4 3.8-9 8.5-11.5 15.3 10.2-10.6 25-14.7 35-13.2z"/><path fill="#33922E" d="M437.7-317c-5.5 4.6-10.7 12.5-11.5 22.8-1-10.2-3.2-18-8.2-24 0 0 6.4 3 8.6 9.2 3-5.3 11-8 11-8zM451.7-367.8c-1.2 6-6.3 11-13 13.7 2.8-7 1.8-14-2-20 .8 8-1.6 13.3-6 18 1.5-4.7 1.4-9-1-13.7 1 8.4-6 12.8-15.6 18.4-12.5 7.6-17.2 16-19 27.2 3.3-7 9.8-13.2 27.7-17.4 22.3-5 30.4-12.4 29-26.4z"/><linearGradient id="n" gradientUnits="userSpaceOnUse" x1="-39007.7" y1="-53213.7" x2="-39007.7" y2="-53185.6" gradientTransform="matrix(1 0 0 -1 39406.6 -53548.4)"><stop offset=".2" stop-color="#F7A600"/><stop offset=".8" stop-color="#FDC300"/></linearGradient><path fill="url(#n)" d="M424.8-369.7c-2.7 13.8-25.4 16.2-30.3 34-3.8-19-21.3-19.8-21.6-33 3 7.7 10.8 5.7 15.8 12-.8-6-4.6-12-12.4-15 7.7-1 15.7 1.8 19 9.5 2.7-4.2 3-8.4.8-14 4.7 3.8 7.5 9.4 5.7 16.7 7-7.3 17.8-3.2 22.8-10.2z"/><path fill="#33922E" d="M302-180c5.6-4.6 10.7-12.4 11.5-22.7 1 10.2 3.2 18 8.2 24 0 0-6.3-3.2-8.6-9.2-2.8 5.3-11 8-11 8zM288-129c1.3-6 6.4-11.3 13-13.8-2.7 7-1.7 13.8 2.2 19.8-1-7.8 1.4-13.2 5.7-18-1.4 4.8-1.3 9.2 1 13.8-1-8.5 6.2-12.8 15.6-18.4 12.7-7.6 17.3-16 19.3-27.3-3.6 7-10 13.3-28 17.4-22.3 5.2-30.4 12.4-29 26.5z"/><radialGradient id="o" cx="-39036.7" cy="-53300" r="133.4" gradientTransform="matrix(1 0 0 -1 39406.6 -53548.4)" gradientUnits="userSpaceOnUse"><stop offset=".3" stop-color="#5EA62B"/><stop offset=".8" stop-color="#86BC25"/></radialGradient><path fill="url(#o)" d="M405.7-241.2c29.5 4 46.3 20.8 49.2 36.6-4-9.3-13-15.3-23.7-18.7 10.6 14 7.2 32 21 41.7-10.3-11-7-24.4-14.8-36.7 12.2 7 14 16.7 17 27 4.4 16 11.5 20.2 17.2 22.3-11.7.5-28.6-4.5-36.8-20-8.7-16.6-1.5-34.5-22.5-44 9.6 8.2 14.7 19.7 8.7 34.6 2.2-22-20.7-25.5-24.4-40.5-.6 11.6 7.2 21.3 14.6 26-10.3-3.4-19.2-9-23.4-21.8-7 21.4 5.3 38.4 13 38.4 2.5 0 4.4-1.6 4.4-4 0-6.6-11.6-6.6-14.6-19 5.3 11 25.6 9 25.6 20.8 0 9.7-13.7 14-22.4 8 6.4 8.3 21.3 8.6 25.6-1.4.6 4.3-1.4 10.7-7.5 13-7 2.8-13.4-2.4-13.4-2.4 7.7 11 21 3.7 34 4 11 0 18.2 5.7 21.4 11-3-1.4-4.7-1.8-7.7-2 6.3 4 11 13 9 21.6-1.2-6.3-8.5-10.7-22.3-11.6-15.5-1-23.8-3.6-29-9.3 11 5 29-2 41 6-7.5-8.5-24-6-35.8-8-20.7-3.3-33.3-38.3-31.7-53.6-5.6 23.4 9.5 36.2 12.8 49 3.6 14.2-3.4 24-10 29 10.3-15.5-7.4-24.7-4.6-44.4-5.2 19 4.5 24.6 4.5 34.6 0 9.6-8.6 13-10.3 25.4-1.8-12.5-10.4-15.8-10.4-25.5 0-10 9.6-15.5 4.4-34.7 2.8 19.7-15 29-4.6 44.3-6.6-5-13.6-14.7-10-28.8 3.4-13 18.5-25.7 12.8-49 1.7 15.2-11 50.2-31.7 53.5-11.7 2-28.2-.5-35.7 8 12-8 29.8-1 41-6-5.3 5.7-13.5 8.2-29 9.3-14 1-21 5.3-22.4 11.6-1.8-8.7 2.7-17.6 9-21.5-3 0-4.7.5-7.6 2 3.2-5.4 10.4-11 21.3-11.2 13.2-.2 26.5 7 34-4 0 0-6.4 5.3-13.3 2.6-6.2-2.3-8.2-8.7-7.5-13 4.3 10 19.2 9.7 25.5 1.4-8.7 6-22.3 1.7-22.3-8 0-12 20.2-10 25.5-20.8-3 12.4-14.7 12.4-14.7 19 0 2.4 2 4 4.6 4 7.5 0 19.7-17 12.8-38.4-4.2 12.8-13 18.4-23.4 21.8 7.3-4.7 15-14.4 14.5-26-3.8 15-26.7 18.6-24.4 40.6-6-15-1-26.4 8.7-34.5-21 9.5-14 27.4-22.5 44-8 15.5-25 20.5-36.8 20 5.7-2 13-6.3 17.3-22.2 3-10.4 4.7-20.2 17-27-7.7 12.2-4.6 25.6-15 36.6 14-9.8 10.6-27.7 21.2-41.7-10.6 3.4-19.7 9.4-23.6 18.7 2.8-15.8 19.6-32.6 49-36.6-30.3-1.3-36 15.6-51.4 16.2-9.7.4-18.2-8.4-28-13.7 12 3 31 11.3 41-2 0 0-6 5-18.2 3.6-12.2-1.7-23.4-9.5-54-11.5 30.6-2 41.8-9.8 54-11.3 12-1.6 18.3 3.7 18.3 3.7-10-13.6-29-5.3-41.2-2.2 10-5.3 18.4-14 28-13.7 15.4.7 21.2 17.5 51.5 16.3-29.4-4-46.2-20.8-49-36.6 3.8 9.3 13 15.2 23.5 18.6-10.6-14-7.2-31.8-21-41.7 10.2 11 7 24.5 14.8 36.8-12.3-7-14-16.7-17-27.2-4.4-15.8-11.6-20-17.3-22.2 11.7-.4 28.7 4.6 36.8 20 8.6 16.7 1.5 34.6 22.5 44-9.6-8-14.7-19.6-8.7-34.5-2.3 22 20.6 25.5 24.3 40.4.5-11.6-7.3-21.3-14.6-26 10.3 3.4 19.2 9 23.4 22 7-21.5-5.3-38.6-13-38.6-2.5 0-4.5 1.7-4.5 4.2 0 6.4 11.7 6.4 14.6 18.8-5.4-10.8-25.6-8.8-25.6-20.7 0-9.8 13.6-14 22.3-8-6.3-8.4-21.2-8.6-25.5 1.4-.7-4.2 1.3-10.6 7.5-13 7-2.7 13.4 2.5 13.4 2.5-7.5-11-20.8-3.7-34-4-10.8 0-18-5.8-21.2-11 3 1.4 4.6 1.8 7.6 1.8-6.3-3.8-10.8-12.8-9-21.4 1.3 6 8.5 10.5 22.3 11.5 15.6 1 23.8 3.6 29 9.3-11-5-28.8 2-41-6 7.6 8.5 24 6 35.8 8 20.7 3.3 33.4 38.2 31.7 53.6 5.7-23.4-9.4-36.2-12.7-49.2-3.7-14 3.3-23.8 10-28.8-10.4 15.4 7.3 24.7 4.5 44.4 5.2-19.2-4.4-24.7-4.4-34.6 0-9.8 8.6-13 10.3-25.5 1.6 12.5 10.2 15.7 10.2 25.5 0 10-9.7 15.4-4.5 34.6-2.8-19.7 15-29 4.6-44.4 6.6 5 13.6 14.7 10 28.8-3.3 13-18.4 25.8-12.8 49.2-1.6-15.4 11-50.3 31.7-53.7 11.8-1.8 28.3.6 35.7-8-12 8-30 1-41 6 5.2-5.6 13.5-8 29-9.2 13.8-1 21-5.4 22.4-11.6 1.8 8.5-2.8 17.5-9 21.3 3 0 4.6-.4 7.6-2-3.2 5.4-10.4 11-21.3 11.3-13 .2-26.4-7-34 4 0 0 6.4-5.3 13.4-2.6 6.2 2.4 8.2 8.8 7.6 13-4.3-10-19.2-9.6-25.6-1.3 8.7-6 22.4-1.8 22.4 8 0 12-20.3 10-25.6 20.7 3-12.4 14.6-12.4 14.6-18.8 0-2.5-2-4.2-4.5-4.2-7.7 0-20 17-13 38.5 4.2-13 13-18.6 23.4-22-7.4 4.7-15.2 14.4-14.6 26 3.7-15 26.6-18.6 24.4-40.5 6 15 1 26.4-8.7 34.4 21-9.4 13.8-27.3 22.4-44 8-15.4 25-20.4 36.7-20-5.7 2-12.8 6.4-17.2 22.2-3 10.5-4.8 20.3-17 27.2 7.7-12.3 4.5-25.7 15-36.8-14 10-10.6 27.7-21.2 41.7C442-277 451-283 455-292.3c-3 15.8-19.8 32.5-49.3 36.6 30.3 1.2 36.2-15.6 51.5-16.2 9.7-.3 18 8.5 28 13.8-12-3-31-11.4-41.2 2 0 0 6.2-5.2 18.3-3.6 12.3 1.5 23.5 9.4 54 11.3-30.5 2-41.7 9.8-54 11.4-12 1.4-18.3-3.8-18.3-3.8 10 13.4 29 5.2 41.2 2-10 5.4-18.3 14.2-28 13.8-15.3-.6-21.2-17.5-51.5-16.2zm33.4-7.3c4.7 1.3 8.7 3.8 14.6 3.8 7 0 11-2.7 16.7-3.8-5.7-1-9.6-3.7-16.7-3.7-6 0-10 2.5-14.5 3.7zm-72-90.3c0 5 3 8.4 3 12 0-3.6 3-7 3-12 0-4.5-2.4-6.6-3-11.4-1 4.8-3 7-3 11.4zm-66.3 90.3c-4.6-1.2-8.7-3.7-14.5-3.7-7 0-11 2.7-16.7 3.7 5.6 1 9.6 3.8 16.7 3.8 5.8 0 10-2.5 14.5-3.8zm72.2 90.3c0-5-3-8.4-3-12 0 3.6-3 7-3 12 0 4.6 2 6.7 3 11.5.6-4.8 3-7 3-11.5zm42-90.3c-10 0-24-5-35-3 3.4-2 5-3.7 7.4-6.7-4.4.4-6.7.8-10 2.3 2.6-6 3-9.3 3.7-15.4-3 3.6-4.6 5.8-6.5 10.7.7-12.4-4.3-15.3-4.6-31.8-.5 16.5-5.4 19.4-4.7 31.8-2-5-3.5-7-6.6-10.7.5 6 1 9.5 3.7 15.5-3.3-1.4-5.7-1.8-10-2.2 2.4 3 4 4.6 7.4 6.7-11-2-25 3-35 3 10 0 24 5 35 3-3.5 2-5 3.7-7.5 6.8 4.4-.4 6.8-.8 10-2.3-2.5 6-3 9.4-3.6 15.4 3-3.5 4.6-5.7 6.6-10.6-.7 12.4 4.2 15.2 4.6 31.7.2-16.5 5.2-19.3 4.5-31.7 2 5 3.5 7 6.6 10.6-.5-6-1-9.4-3.7-15.4 3.4 1.5 5.7 2 10 2.3-2.3-3-4-4.7-7.3-6.8 11 2 25-3 35-3z"/><path fill="#33922E" d="M437.7-180c-5.5-4.6-10.7-12.4-11.5-22.7-1 10.2-3.2 18-8.2 24 0 0 6.4-3.2 8.6-9.2 3 5.3 11 8 11 8zM451.7-129c-1.2-6-6.3-11.3-13-13.8 2.8 7 1.8 13.8-2 19.8.8-7.8-1.6-13.2-6-18 1.5 4.8 1.4 9.2-1 13.8 1-8.5-6-12.8-15.6-18.4-12.5-7.6-17.2-16-19-27.3 3.3 7 9.8 13.3 27.7 17.4 22.3 5.2 30.4 12.4 29 26.5z"/><linearGradient id="p" gradientUnits="userSpaceOnUse" x1="55382.6" y1="36859.2" x2="55359.3" y2="36867.1" gradientTransform="matrix(-1 0 0 1 55831 -37077.2)"><stop offset=".2" stop-color="#F7A600"/><stop offset=".8" stop-color="#FDC300"/></linearGradient><path fill="url(#p)" d="M451.4-221.3c4.7 4.6 7 12.2 7.3 21.7C459-187 464-182 472-181c-11.8-4.6-4.4-17.2-8-26 6.5 5 4.4 20.8 17.7 21.5-9.8-3.2-2.8-16.7-9.3-24.5 7.8 0 11.4-6 21.5-3.2-4.8-3.7-10-6-19-6 6.4-3.8 9-8.6 11.4-15.3-10 10.6-24.8 14.7-35 13.2z"/><linearGradient id="q" gradientUnits="userSpaceOnUse" x1="-39115.2" y1="36859.2" x2="-39138.5" y2="36867.1" gradientTransform="translate(39406.6 -37077.2)"><stop offset=".2" stop-color="#F7A600"/><stop offset=".8" stop-color="#FDC300"/></linearGradient><path fill="url(#q)" d="M288.3-221.3c-4.6 4.6-7 12.2-7.2 21.7-.4 12.5-5.3 17.7-13.2 18.5 11.8-4.6 4.4-17.2 8-26-6.5 5-4.5 20.8-17.7 21.5 9.8-3.2 3-16.7 9.3-24.5-7.8 0-11.4-6-21.5-3.2 4.7-3.7 10-6 19-6-6.4-3.8-9-8.6-11.5-15.3 10.2 10.6 25 14.7 35 13.2z"/><linearGradient id="r" gradientUnits="userSpaceOnUse" x1="55490.1" y1="-53213.7" x2="55490.1" y2="-53185.6" gradientTransform="rotate(180 27915.5 -26774.2)"><stop offset=".2" stop-color="#F7A600"/><stop offset=".8" stop-color="#FDC300"/></linearGradient><path fill="url(#r)" d="M315-369.7c2.6 13.8 25.4 16.2 30.3 34 3.8-19 21.3-19.8 21.5-33-3.2 7.7-10.8 5.7-16 12 1-6 4.8-12 12.5-15-7.6-1-15.6 1.8-19 9.5-2.6-4.2-3-8.4-.8-14-4.7 3.8-7.5 9.4-5.6 16.7-7.4-7.3-18-3.2-23-10.2z"/><path fill="#FDC300" d="M388-248.5c-4.2-.6-9.3-3.2-14-1.2 2.3-1.8 1-3.5 2.5-5.2-2 1.5-3.5.6-5 3 1.5-5.5-.5-8.3-1.6-14.3-1.2 6-3.3 8.8-1.8 14.2-1.4-2.4-3-1.5-5-3 1.4 1.8.3 3.5 2.6 5.3-4.8-2-10 .6-14 1.2 4 .7 9.2 3.2 14 1.2-2.3 2-1.2 3.6-2.5 5.2 2-1.4 3.5-.6 5-2.8-1.6 5.3.5 8 1.6 14 1-6 3-8.7 1.5-14 1.5 2.2 3 1.4 5 2.7-1.4-1.7-.2-3.4-2.5-5.3 4.7 2 9.8-.5 14-1.2z"/></g><g><linearGradient id="s" gradientUnits="userSpaceOnUse" x1="-39167" y1="36770.9" x2="-39167" y2="36799" gradientTransform="translate(39342.6 -37062.7)"><stop offset=".2" stop-color="#F7A600"/><stop offset=".8" stop-color="#FDC300"/></linearGradient><path fill="url(#s)" d="M201.4-256.8c-2.6-13.8-25.3-16.3-30.3-34-3.6 19-21 19.8-21.4 33 3.2-7.7 10.8-5.7 16-12-1 6-4.7 11.8-12.5 15 7.8 1 15.7-1.8 19.2-9.5 2.6 4 2.8 8.4.7 13.8 4.6-3.6 7.4-9.3 5.6-16.5 7.2 7.2 18 3.2 22.8 10.2z"/><radialGradient id="t" cx="-39260" cy="-53170.4" r="133.4" gradientTransform="matrix(1 0 0 -1 39406.6 -53548.4)" gradientUnits="userSpaceOnUse"><stop offset=".3" stop-color="#5EA62B"/><stop offset=".8" stop-color="#86BC25"/></radialGradient><path fill="url(#t)" d="M182.4-370.8c29.4 4 46.2 20.8 49 36.6-3.8-9.3-12.8-15.3-23.5-18.7 10.6 14 7 32 21 41.8-10.3-11-7-24.4-14.8-36.7 12.2 7 14 16.8 17 27.2 4.4 16 11.5 20 17.2 22.2-11.7.5-28.7-4.5-36.8-20-8.6-16.6-1.4-34.5-22.5-43.8 9.7 8 15 19.5 8.8 34.4 2.3-22-20.6-25.5-24.3-40.5-.6 11.5 7.2 21.2 14.6 26-10.2-3.4-19-9-23.3-22-7 21.5 5.3 38.6 13 38.6 2.5 0 4.4-1.6 4.4-4 0-6.6-11.6-6.6-14.5-19 5.3 11 25.5 9 25.5 20.8 0 9.7-13.6 14-22.3 8 6.4 8.3 21.2 8.6 25.5-1.4.7 4.3-1.3 10.7-7.4 13-7 2.8-13.5-2.4-13.5-2.4 7.6 11 21 3.7 34 4 11 0 18.2 5.7 21.4 11-3-1.4-4.7-1.8-7.7-2 6.3 4 11 13 9 21.6-1.2-6.2-8.5-10.7-22.3-11.6-15.5-1-23.8-3.6-29-9.3 11 5 29-2 41 6-7.5-8.5-24-6-35.8-8-20.8-3.3-33.4-38.3-31.8-53.6-5.7 23.5 9.4 36.3 12.8 49.2 3.6 14.2-3.4 23.8-10 28.8 10.3-15.4-7.4-24.6-4.6-44.3-5.2 19.2 4.4 24.6 4.4 34.6 0 9.7-8.5 13-10.2 25.5-1.7-12.5-10.3-15.8-10.3-25.5 0-10 9.6-15.4 4.4-34.6 2.8 19.7-15 29-4.6 44.3-6.5-5-13.5-14.6-10-28.8 3.5-13 18.6-25.7 13-49 1.5 15.2-11 50.2-31.8 53.5-11.8 2-28.2-.5-35.7 8 12-8 29.8-1 41-6-5.3 5.7-13.6 8.2-29 9.3-14 1-21.2 5.4-22.5 11.6-1.8-8.7 2.8-17.6 9-21.5-3 .2-4.6.6-7.5 2 3-5.3 10.4-11 21.2-11 13.2-.3 26.5 7 34-4 0 0-6.4 5.2-13.4 2.5-6-2.4-8-8.8-7.4-13 4.2 10 19 9.6 25.4 1.3-8.7 6-22.3 1.7-22.3-8 0-12 20.3-10 25.6-20.8-3 12.4-14.6 12.4-14.6 19 0 2.4 2 4 4.6 4 7.5 0 19.8-17 13-38.4-4.3 12.8-13.3 18.5-23.6 21.8 7.4-4.7 15.2-14.4 14.6-26C116-353.5 93-350 95.3-328c-6-15-1-26.4 8.7-34.4-21 9.3-14 27.2-22.5 43.7-8 15.6-25 20.6-36.8 20 5.7-2 12.8-6.2 17.2-22 2.8-10.5 4.7-20.3 17-27.2-7.7 12.4-4.6 25.8-15 36.8C78-321 74.7-339 85.3-353c-10.6 3.5-19.7 9.5-23.6 18.8 3-15.8 19.7-32.6 49-36.6-30.2-1.3-36 15.6-51.3 16.2-9.7.4-18.2-8.4-28-13.7 12 3 31 11.3 41-2 0 0-6 5-18.2 3.6C42-368.3 30.8-376 0-378c30.7-2 41.8-10 54-11.4 12.2-1.6 18.4 3.7 18.4 3.7-10-13.4-29-5.2-41.2-2 10-5.4 18.4-14.2 28-13.8 15.3.6 21.2 17.5 51.5 16.2-29.4-4-46.2-20.8-49-36.6 3.8 9.4 13 15.3 23.5 18.7-10.6-14-7.2-31.8-21-41.7 10.2 11 7 24.5 14.8 36.8-12.3-7-14.2-16.7-17-27.2-4.5-15.8-11.6-20-17.3-22 11.7-.6 28.7 4.4 36.8 20C90-421 83-403 104-393.7c-9.6-8-14.8-19.5-8.7-34.4-2.3 21.8 20.6 25.4 24.3 40.4.6-11.6-7.2-21.3-14.6-26 10.3 3.4 19.3 9 23.5 22 7-21.5-5.4-38.6-13-38.6-2.6 0-4.5 1.7-4.5 4.2 0 6.4 11.7 6.4 14.6 18.8C120.3-418 100-416 100-428c0-9.7 13.7-14 22.4-8-6.4-8.2-21.2-8.5-25.5 1.5-.8-4.3 1.2-10.7 7.3-13 7-2.8 13.5 2.4 13.5 2.4-7.6-11-21-3.8-34-4-11-.2-18.2-6-21.3-11.2 3 1.5 4.6 2 7.6 2-6.2-4-10.8-13-9-21.5 1.3 6.2 8.6 10.7 22.4 11.6 15.5 1 23.8 3.5 29 9.2-11-5-28.8 2-41-6 7.6 8.5 24 6 35.8 8 20.7 3.3 33.3 38.2 31.7 53.6 5.6-23.4-9.5-36.2-13-49-3.5-14.3 3.5-24 10-29-10.2 15.5 7.5 24.7 4.7 44.4 5.2-19.2-4.4-24.7-4.4-34.6 0-9.7 8.6-13 10.3-25.5 1.7 12.6 10.2 16 10.2 25.6 0 10-9.6 15.4-4.4 34.6-2.8-19.7 15-29 4.6-44.3 6.6 4.8 13.6 14.5 10 28.7-3.4 13-18.5 25.7-12.8 49-1.6-15.3 11-50.2 31.7-53.5 11.7-2 28.2.5 35.6-8-12 8-29.8 1-41 6 5.3-5.7 13.6-8.2 29-9.3 14-1 21.2-5.5 22.5-11.7 2 8.6-2.7 17.6-9 21.4 3 0 4.7-.4 7.7-2-3.2 5.4-10.5 11-21.3 11.3-13.2.2-26.5-7-34 4 0 0 6.4-5.3 13.4-2.6 6 2.4 8 8.8 7.4 13-4.3-10-19-9.6-25.5-1.3 8.7-6 22.3-1.7 22.3 8 0 12-20.2 10-25.5 20.8 3-12.4 14.6-12.4 14.6-18.8 0-2.5-1.8-4.2-4.4-4.2-7.6 0-20 17-13 38.5 4.3-13 13.2-18.5 23.5-21.8-7.3 4.6-15 14.3-14.5 26 3.7-15 26.6-18.7 24.3-40.6 6 14.8 1 26.3-8.7 34.3 21.2-9.3 14-27.2 22.6-43.7 8-15.6 25-20.6 36.8-20-5.7 2-12.8 6.2-17.2 22-3 10.5-4.8 20.3-17 27.2 7.6-12.3 4.5-25.7 15-36.8-14 10-10.6 27.7-21.3 41.7 10.6-3.4 19.6-9.3 23.5-18.6-3 16-19.7 32.6-49 36.7 30.2 1.3 36-15.6 51.4-16.2 9.5-.4 18 8.4 28 13.7-12.2-3-31.2-11.3-41.3 2 0 0 6.2-5.2 18.3-3.6 12.3 1.5 23.5 9.4 54 11.3-30.5 2-41.7 9.7-54 11.3-12 1.5-18.3-3.7-18.3-3.7 10 13.4 29 5.2 41.2 2-10 5.4-18.5 14.2-28 13.8-15.4-.6-21.3-17.5-51.6-16.2zm33.4-7.3c4.6 1.2 8.6 3.7 14.4 3.7 7.2 0 11-2.7 16.8-3.8-5.7-1-9.6-3.8-16.8-3.8-5.8 0-9.8 2.5-14.4 3.7zm-72.3-90.4c0 5.2 3 8.4 3 12.2 0-3.8 3-7 3-12.2 0-4.5-2.2-6.6-3-11.4-.7 4.8-3 7-3 11.4zm-66 90.3c-4.8-1.3-8.8-3.8-14.6-3.8-7.2 0-11.2 2.7-17 3.7 5.8 1 9.8 3.7 17 3.7 5.7 0 9.7-2.5 14.4-3.8zm72 90.2c0-5-3-8.3-3-12 0 3.7-3 7-3 12 0 4.6 2.3 6.7 3 11.5.8-4.8 3-7 3-11.5zm42-90.3c-9.8 0-24-5-34.8-3 3.4-2.2 5-3.8 7.4-6.8-4.3.4-6.6.8-10 2.3 2.7-6 3.2-9.4 3.7-15.5-3 3.6-4.6 5.8-6.5 10.7.7-12.4-4.3-15.3-4.6-31.8-.4 16.4-5.4 19.3-4.7 31.7-2-5-3.5-7-6.6-10.7.5 6 1 9.5 3.7 15.5-3.2-1.5-5.6-2-10-2.3 2.5 3 4 4.6 7.4 6.7-10.8-2-25 3-35 3 10 0 24.2 5 35 3-3.4 2-5 3.6-7.4 6.7 4.4-.4 6.8-.8 10-2.3-2.6 6-3 9.4-3.6 15.4 3-3.5 4.6-5.7 6.5-10.6-.8 12.4 4.2 15.2 4.6 31.7.3-16.6 5.3-19.4 4.6-31.8 2 5 3.5 7 6.5 10.6-.5-6-1-9.4-3.7-15.4 3.4 1.5 5.7 2 10 2.3-2.3-3-4-4.6-7.3-6.7 10.8 2 25-3 35-3z"/><path fill="#33922E" d="M214.4-309.6c-5.6-4.5-10.7-12.4-11.5-22.7-1.2 10.2-3.3 18-8.3 24 0 0 6.3-3 8.6-9.2 3 5.2 11 8 11 8zM228.4-258.7c-1.3-6-6.4-11.2-13-13.7 2.7 7 1.7 13.8-2 19.8.8-7.8-1.6-13.2-6-18 1.5 4.8 1.3 9.2-1 13.8 1-8.5-6.2-12.8-15.6-18.4-12.7-7.6-17.3-16-19.2-27.3 3.4 7 10 13.2 27.8 17.3 22.3 5.2 30.4 12.4 29 26.5z"/><linearGradient id="u" gradientUnits="userSpaceOnUse" x1="55605.9" y1="36729.6" x2="55582.6" y2="36737.5" gradientTransform="matrix(-1 0 0 1 55831 -37077.2)"><stop offset=".2" stop-color="#F7A600"/><stop offset=".8" stop-color="#FDC300"/></linearGradient><path fill="url(#u)" d="M228-351c4.8 4.7 7 12.3 7.4 21.8.4 12.6 5.4 17.7 13.3 18.6-11.8-4.6-4.5-17.2-8-26 6.5 5 4.4 20.8 17.7 21.5-9.8-3.3-3-16.8-9.3-24.6 8 0 11.5-6 21.6-3.2-4.7-3.7-10-6-18.8-6 6.2-3.8 9-8.6 11.3-15.3-10 10.5-24.8 14.6-35 13z"/><path fill="#FDC300" d="M164.8-378c-4.3-.7-9.4-3.3-14.2-1.3 2.4-1.8 1.2-3.5 2.6-5.2-2 1.4-3.5.5-5 2.8 1.5-5.3-.5-8.2-1.6-14.2-1 6-3.2 9-1.7 14.3-1.6-2.3-3-1.4-5-2.8 1.3 1.7 0 3.4 2.5 5.2-4.8-2-10 .6-14.2 1.2 4.3.6 9.4 3 14.2 1.2-2.4 1.8-1.2 3.5-2.6 5.2 2-1.4 3.4-.5 5-2.8-1.6 5.3.5 8.2 1.6 14 1-6 3-8.7 1.6-14 1.5 2.3 3 1.4 5 2.8-1.4-1.7-.2-3.4-2.6-5.2 4.8 2 10-.6 14.2-1.3z"/></g></g></pattern><g><g><g><g><path fill="#FD0" d="M521.4 633.2c-24.8 0-54.7-6.2-87.6-18.6-72-27.2-150.6-81-221-151.3-70.3-70.4-124-148.8-151.2-221-24.8-65.5-24.8-119.3-.2-144 3.6-3.5 7.2-7.3 11-11.2 22.4-23.6 48.4-50.4 81.5-49 23 1 45.6 15.4 68.6 44 68 84.6 37.4 114.8 2 149.7L218 238c-5.8 5.8-16.8 32.6 85.3 134.7 33.3 33.3 61.7 57.7 84.4 72.5 14.2 9.2 39.8 23.3 50.2 12.8l6.3-6.4c35-35.4 65-66 149.7 2 28.6 23 43 45.5 44 68.7 1.3 33.7-25.5 59.2-49 81.7-4 3.7-7.8 7.2-11.4 10.8-12.2 12.2-31.8 18.4-56.4 18.4zM151.4 58C127.7 58 106 80.7 87 100.8l-11.2 11.7C57.2 130.8 59 179 80.3 235.3c26.2 69.5 78.4 145.5 146.7 214s144.4 120.3 214 146.6c56 21 104.4 23 122.7 4.6l11.6-11.2c20.5-19.5 44-41.7 43-66.3-.8-16.7-13-35-36.7-53.8-70.5-56.6-90-36.6-122.8-3.5l-6.4 6.4c-15.6 15.8-41 12.3-75.4-10-23.8-15.6-53.3-41-87.7-75.2-84.7-84.7-111.8-136.5-85.3-163l6.4-6.4c33.2-32.6 53.2-52.4-3.4-122.8C188 71 170 58.8 153 58h-1.5z"/></g><g fill="#FD0"><path d="M525 284c-1.4 0-2.7-.3-4-.8-5-2-7.5-8-5.4-13 12.7-31.4 5.4-67-18.5-91-24.5-24.7-62.3-31.5-94-17.3-5 2.2-11 0-13.3-5-2.3-5 0-11 5-13.3 39.2-17.8 86-9.2 116.5 21.3 29.7 29.6 38.7 74 23 112.8-1.6 3.8-5.4 6.2-9.3 6.2z"/><path d="M614.2 320.3c-1.2 0-2.5-.3-3.7-.8-5.2-2-7.7-8-5.5-13 27.3-67.4 11.7-144.2-39.7-195.6-52.8-53-134-67.7-202-37-5 2.2-11 0-13.4-5-2.3-5 0-11 5-13.2 75.6-34.2 165.8-17.8 224.4 41 57.2 57 74.5 142.3 44 217.2-1.5 4-5.2 6.3-9.2 6.3z"/></g></g><g><g><path fill="#FD0" d="M1130.2 633c-24.7 0-54.6-6.2-87.5-18.6-72-27.2-150.4-81-220.7-151.2-70.3-70.3-124-148.7-151.2-220.8C646 177 646 123 670.6 98.4l11-11c22.3-23.8 48.3-50.8 81.4-49 23.2.8 45.6 15.2 68.7 43.8 68 84.6 37.3 114.7 2 149.6l-6.4 6.2c-5.8 5.8-16.8 32.7 85.2 134.7 33.3 33.3 61.7 57.7 84.4 72.4 14.2 9.4 39.6 23.4 50.2 13l6.3-6.4c35-35.4 65-66 149.5 2 28.6 23 43 45.4 44 68.6 1.3 33.7-25.5 59-49 81.6-4 3.7-7.8 7.3-11.3 10.8-12.3 12.3-32 18.4-56.5 18.4zM760.6 58.2c-24 0-45.5 22.8-64.6 43l-11.3 11.5c-18.3 18.3-16.4 66.5 4.8 122.7C715.7 304.8 767.8 380.7 836 449c68.4 68.4 144.3 120.5 213.8 146.7 56.2 21.2 104.4 23 122.7 4.7l11.6-11.2c20.6-19.5 44-41.6 43-66.2-.8-17-13-35-36.6-54-70.4-56.5-90-36.5-122.7-3.4l-6.4 6.4c-15.6 15.7-41 12.2-75.4-10.2-24-15.5-53.4-40.7-87.7-75-84.6-84.6-111.7-136.4-85.2-163l6.5-6.3c33.2-32.6 53.2-52.3-3.4-122.8-19-23.5-37-35.7-54-36.4h-1.4z"/></g><g fill="#FD0"><path d="M1043.3 251.8c-2.5 0-5-1-7-3-4-3.8-4-10 0-14L1229.8 41c3.8-3.8 10-3.8 14 0 4 4 4 10.4 0 14.3L1050.4 249c-2 2-4.5 2.8-7 2.8z"/><path d="M1191.4 251.8h-148c-5.6 0-10-4.4-10-10v-148c0-5.5 4.4-10 10-10s10 4.5 10 10v138h138c5.5 0 10 4.5 10 10s-4.5 10-10 10z"/></g></g><g><g><path fill="#FD0" d="M1739.3 633.5c-25 0-55-6.3-88.2-18.8-72.5-27.4-151.5-81.5-222.4-152.3-70.8-71-125-150-152.4-222.6-25-66-25-120.2 0-145l10.8-11.3c22.7-24 48.5-51 82.2-49.4 23.4 1 46 15.6 69.2 44.4 68.5 85.2 37.6 115.6 2 150.8l-6.4 6.2c-6 6-17 33 86 135.7 33.4 33.7 62 58.2 85 73 14.3 9.5 40 23.6 50.6 13l6.3-6.4c35-35.6 65.5-66.4 150.6 2 29 23.2 43.4 45.8 44.3 69.2 1.3 34-25.7 59.6-49.5 82.2-4 3.7-7.8 7.4-11.3 11-12.4 12.3-32 18.5-57 18.5zM1366.8 54.2c-24 0-46 23-65.2 43.2l-11.3 11.7c-18.4 18.5-16.6 67 4.8 123.7 26.5 70 79 146.5 148 215.4 68.8 69 145.2 121.5 215.3 148 56.6 21.3 105.2 23 123.6 4.6 3.6-3.7 7.5-7.4 11.6-11.3 20.7-19.6 44.2-42 43.2-66.7-.7-17-13-35.3-36.8-54.3-71-57-90.8-37-123.7-3.6l-6.5 6.6c-15.7 15.7-41.2 12.2-76-10.3-24-15.7-53.6-41-88.2-75.7-85.3-85.2-112.6-137.4-86-164.2l6.5-6.3c33.6-33 53.8-52.7-3.3-123.7-19-23.7-37.4-36-54.4-36.8h-1.5z"/></g><g fill="#FD0"><path d="M1651.7 249.3c-2.6 0-5-1-7-3-4-3.8-4-10.2 0-14.2l195-195c4-4 10.4-4 14.3 0s4 10.3 0 14.2l-195.2 195.2c-2 2-4.5 3-7 3z"/><path d="M1847 203.4c-5.7 0-10.2-4.5-10.2-10V54h-139.2c-5.5 0-10-4.5-10-10s4.5-10.2 10-10.2H1847c5.4 0 10 4.5 10 10v149.3c0 5.6-4.5 10-10 10z"/></g></g></g><g><g><g><pattern id="w" xlink:href="#v" patternTransform="matrix(0 -.7 .7 0 -2520 -11727.5)"/><path fill="url(#w)" d="M521.4 633.2c-24.8 0-54.7-6.2-87.6-18.6-72-27.2-150.6-81-221-151.3-70.3-70.4-124-148.8-151.2-221-24.8-65.5-24.8-119.3-.2-144 3.6-3.5 7.2-7.3 11-11.2 22.4-23.6 48.4-50.4 81.5-49 23 1 45.6 15.4 68.6 44 68 84.6 37.4 114.8 2 149.7L218 238c-5.8 5.8-16.8 32.6 85.3 134.7 33.3 33.3 61.7 57.7 84.4 72.5 14.2 9.2 39.8 23.3 50.2 12.8l6.3-6.4c35-35.4 65-66 149.7 2 28.6 23 43 45.5 44 68.7 1.3 33.7-25.5 59.2-49 81.7-4 3.7-7.8 7.2-11.4 10.8-12.2 12.2-31.8 18.4-56.4 18.4zM151.4 58C127.7 58 106 80.7 87 100.8l-11.2 11.7C57.2 130.8 59 179 80.3 235.3c26.2 69.5 78.4 145.5 146.7 214s144.4 120.3 214 146.6c56 21 104.4 23 122.7 4.6l11.6-11.2c20.5-19.5 44-41.7 43-66.3-.8-16.7-13-35-36.7-53.8-70.5-56.6-90-36.6-122.8-3.5l-6.4 6.4c-15.6 15.8-41 12.3-75.4-10-23.8-15.6-53.3-41-87.7-75.2-84.7-84.7-111.8-136.5-85.3-163l6.4-6.4c33.2-32.6 53.2-52.4-3.4-122.8C188 71 170 58.8 153 58h-1.5z"/></g><g><pattern id="x" xlink:href="#v" patternTransform="matrix(0 -.7 .7 0 -2520 -11727.5)"/><path fill="url(#x)" d="M525 284c-1.4 0-2.7-.3-4-.8-5-2-7.5-8-5.4-13 12.7-31.4 5.4-67-18.5-91-24.5-24.7-62.3-31.5-94-17.3-5 2.2-11 0-13.3-5-2.3-5 0-11 5-13.3 39.2-17.8 86-9.2 116.5 21.3 29.7 29.6 38.7 74 23 112.8-1.6 3.8-5.4 6.2-9.3 6.2z"/><pattern id="y" xlink:href="#v" patternTransform="matrix(0 -.7 .7 0 -2520 -11727.5)"/><path fill="url(#y)" d="M614.2 320.3c-1.2 0-2.5-.3-3.7-.8-5.2-2-7.7-8-5.5-13 27.3-67.4 11.7-144.2-39.7-195.6-52.8-53-134-67.7-202-37-5 2.2-11 0-13.4-5-2.3-5 0-11 5-13.2 75.6-34.2 165.8-17.8 224.4 41 57.2 57 74.5 142.3 44 217.2-1.5 4-5.2 6.3-9.2 6.3z"/></g></g><g><g><pattern id="z" xlink:href="#v" patternTransform="matrix(0 -.7 .7 0 -2520 -11727.5)"/><path fill="url(#z)" d="M1130.2 633c-24.7 0-54.6-6.2-87.5-18.6-72-27.2-150.4-81-220.7-151.2-70.3-70.3-124-148.7-151.2-220.8C646 177 646 123 670.6 98.4l11-11c22.3-23.8 48.3-50.8 81.4-49 23.2.8 45.6 15.2 68.7 43.8 68 84.6 37.3 114.7 2 149.6l-6.4 6.2c-5.8 5.8-16.8 32.7 85.2 134.7 33.3 33.3 61.7 57.7 84.4 72.4 14.2 9.4 39.6 23.4 50.2 13l6.3-6.4c35-35.4 65-66 149.5 2 28.6 23 43 45.4 44 68.6 1.3 33.7-25.5 59-49 81.6-4 3.7-7.8 7.3-11.3 10.8-12.3 12.3-32 18.4-56.5 18.4zM760.6 58.2c-24 0-45.5 22.8-64.6 43l-11.3 11.5c-18.3 18.3-16.4 66.5 4.8 122.7C715.7 304.8 767.8 380.7 836 449c68.4 68.4 144.3 120.5 213.8 146.7 56.2 21.2 104.4 23 122.7 4.7l11.6-11.2c20.6-19.5 44-41.6 43-66.2-.8-17-13-35-36.6-54-70.4-56.5-90-36.5-122.7-3.4l-6.4 6.4c-15.6 15.7-41 12.2-75.4-10.2-24-15.5-53.4-40.7-87.7-75-84.6-84.6-111.7-136.4-85.2-163l6.5-6.3c33.2-32.6 53.2-52.3-3.4-122.8-19-23.5-37-35.7-54-36.4h-1.4z"/></g><g><pattern id="A" xlink:href="#v" patternTransform="matrix(0 -.7 .7 0 -2520 -11727.5)"/><path fill="url(#A)" d="M1043.3 251.8c-2.5 0-5-1-7-3-4-3.8-4-10 0-14L1229.8 41c3.8-3.8 10-3.8 14 0 4 4 4 10.4 0 14.3L1050.4 249c-2 2-4.5 2.8-7 2.8z"/><pattern id="B" xlink:href="#v" patternTransform="matrix(0 -.7 .7 0 -2520 -11727.5)"/><path fill="url(#B)" d="M1191.4 251.8h-148c-5.6 0-10-4.4-10-10v-148c0-5.5 4.4-10 10-10s10 4.5 10 10v138h138c5.5 0 10 4.5 10 10s-4.5 10-10 10z"/></g></g><g><g><pattern id="C" xlink:href="#v" patternTransform="matrix(0 -.7 .7 0 -2520 -11727.5)"/><path fill="url(#C)" d="M1739.3 633.5c-25 0-55-6.3-88.2-18.8-72.5-27.4-151.5-81.5-222.4-152.3-70.8-71-125-150-152.4-222.6-25-66-25-120.2 0-145l10.8-11.3c22.7-24 48.5-51 82.2-49.4 23.4 1 46 15.6 69.2 44.4 68.5 85.2 37.6 115.6 2 150.8l-6.4 6.2c-6 6-17 33 86 135.7 33.4 33.7 62 58.2 85 73 14.3 9.5 40 23.6 50.6 13l6.3-6.4c35-35.6 65.5-66.4 150.6 2 29 23.2 43.4 45.8 44.3 69.2 1.3 34-25.7 59.6-49.5 82.2-4 3.7-7.8 7.4-11.3 11-12.4 12.3-32 18.5-57 18.5zM1366.8 54.2c-24 0-46 23-65.2 43.2l-11.3 11.7c-18.4 18.5-16.6 67 4.8 123.7 26.5 70 79 146.5 148 215.4 68.8 69 145.2 121.5 215.3 148 56.6 21.3 105.2 23 123.6 4.6 3.6-3.7 7.5-7.4 11.6-11.3 20.7-19.6 44.2-42 43.2-66.7-.7-17-13-35.3-36.8-54.3-71-57-90.8-37-123.7-3.6l-6.5 6.6c-15.7 15.7-41.2 12.2-76-10.3-24-15.7-53.6-41-88.2-75.7-85.3-85.2-112.6-137.4-86-164.2l6.5-6.3c33.6-33 53.8-52.7-3.3-123.7-19-23.7-37.4-36-54.4-36.8h-1.5z"/></g><g><pattern id="D" xlink:href="#v" patternTransform="matrix(0 -.7 .7 0 -2520 -11727.5)"/><path fill="url(#D)" d="M1651.7 249.3c-2.6 0-5-1-7-3-4-3.8-4-10.2 0-14.2l195-195c4-4 10.4-4 14.3 0s4 10.3 0 14.2l-195.2 195.2c-2 2-4.5 3-7 3z"/><pattern id="E" xlink:href="#v" patternTransform="matrix(0 -.7 .7 0 -2520 -11727.5)"/><path fill="url(#E)" d="M1847 203.4c-5.7 0-10.2-4.5-10.2-10V54h-139.2c-5.5 0-10-4.5-10-10s4.5-10.2 10-10.2H1847c5.4 0 10 4.5 10 10v149.3c0 5.6-4.5 10-10 10z"/></g></g></g><g><g><g><path fill="#010202" d="M521.4 633.2c-24.8 0-54.7-6.2-87.6-18.6-72-27.2-150.6-81-221-151.3-70.3-70.4-124-148.8-151.2-221-24.8-65.5-24.8-119.3-.2-144 3.6-3.5 7.2-7.3 11-11.2 22.4-23.6 48.4-50.4 81.5-49 23 1 45.6 15.4 68.6 44 68 84.6 37.4 114.8 2 149.7L218 238c-5.8 5.8-16.8 32.6 85.3 134.7 33.3 33.3 61.7 57.7 84.4 72.5 14.2 9.2 39.8 23.3 50.2 12.8l6.3-6.4c35-35.4 65-66 149.7 2 28.6 23 43 45.5 44 68.7 1.3 33.7-25.5 59.2-49 81.7-4 3.7-7.8 7.2-11.4 10.8-12.2 12.2-31.8 18.4-56.4 18.4zM151.4 58C127.7 58 106 80.7 87 100.8l-11.2 11.7C57.2 130.8 59 179 80.3 235.3c26.2 69.5 78.4 145.5 146.7 214s144.4 120.3 214 146.6c56 21 104.4 23 122.7 4.6l11.6-11.2c20.5-19.5 44-41.7 43-66.3-.8-16.7-13-35-36.7-53.8-70.5-56.6-90-36.6-122.8-3.5l-6.4 6.4c-15.6 15.8-41 12.3-75.4-10-23.8-15.6-53.3-41-87.7-75.2-84.7-84.7-111.8-136.5-85.3-163l6.4-6.4c33.2-32.6 53.2-52.4-3.4-122.8C188 71 170 58.8 153 58h-1.5z"/></g><g fill="#010202"><path d="M525 284c-1.4 0-2.7-.3-4-.8-5-2-7.5-8-5.4-13 12.7-31.4 5.4-67-18.5-91-24.5-24.7-62.3-31.5-94-17.3-5 2.2-11 0-13.3-5-2.3-5 0-11 5-13.3 39.2-17.8 86-9.2 116.5 21.3 29.7 29.6 38.7 74 23 112.8-1.6 3.8-5.4 6.2-9.3 6.2z"/><path d="M614.2 320.3c-1.2 0-2.5-.3-3.7-.8-5.2-2-7.7-8-5.5-13 27.3-67.4 11.7-144.2-39.7-195.6-52.8-53-134-67.7-202-37-5 2.2-11 0-13.4-5-2.3-5 0-11 5-13.2 75.6-34.2 165.8-17.8 224.4 41 57.2 57 74.5 142.3 44 217.2-1.5 4-5.2 6.3-9.2 6.3z"/></g></g><g><g><path fill="#010202" d="M1130.2 633c-24.7 0-54.6-6.2-87.5-18.6-72-27.2-150.4-81-220.7-151.2-70.3-70.3-124-148.7-151.2-220.8C646 177 646 123 670.6 98.4l11-11c22.3-23.8 48.3-50.8 81.4-49 23.2.8 45.6 15.2 68.7 43.8 68 84.6 37.3 114.7 2 149.6l-6.4 6.2c-5.8 5.8-16.8 32.7 85.2 134.7 33.3 33.3 61.7 57.7 84.4 72.4 14.2 9.4 39.6 23.4 50.2 13l6.3-6.4c35-35.4 65-66 149.5 2 28.6 23 43 45.4 44 68.6 1.3 33.7-25.5 59-49 81.6-4 3.7-7.8 7.3-11.3 10.8-12.3 12.3-32 18.4-56.5 18.4zM760.6 58.2c-24 0-45.5 22.8-64.6 43l-11.3 11.5c-18.3 18.3-16.4 66.5 4.8 122.7C715.7 304.8 767.8 380.7 836 449c68.4 68.4 144.3 120.5 213.8 146.7 56.2 21.2 104.4 23 122.7 4.7l11.6-11.2c20.6-19.5 44-41.6 43-66.2-.8-17-13-35-36.6-54-70.4-56.5-90-36.5-122.7-3.4l-6.4 6.4c-15.6 15.7-41 12.2-75.4-10.2-24-15.5-53.4-40.7-87.7-75-84.6-84.6-111.7-136.4-85.2-163l6.5-6.3c33.2-32.6 53.2-52.3-3.4-122.8-19-23.5-37-35.7-54-36.4h-1.4z"/></g><g fill="#010202"><path d="M1043.3 251.8c-2.5 0-5-1-7-3-4-3.8-4-10 0-14L1229.8 41c3.8-3.8 10-3.8 14 0 4 4 4 10.4 0 14.3L1050.4 249c-2 2-4.5 2.8-7 2.8z"/><path d="M1191.4 251.8h-148c-5.6 0-10-4.4-10-10v-148c0-5.5 4.4-10 10-10s10 4.5 10 10v138h138c5.5 0 10 4.5 10 10s-4.5 10-10 10z"/></g></g><g><g><path fill="#010202" d="M1739.3 633.5c-25 0-55-6.3-88.2-18.8-72.5-27.4-151.5-81.5-222.4-152.3-70.8-71-125-150-152.4-222.6-25-66-25-120.2 0-145l10.8-11.3c22.7-24 48.5-51 82.2-49.4 23.4 1 46 15.6 69.2 44.4 68.5 85.2 37.6 115.6 2 150.8l-6.4 6.2c-6 6-17 33 86 135.7 33.4 33.7 62 58.2 85 73 14.3 9.5 40 23.6 50.6 13l6.3-6.4c35-35.6 65.5-66.4 150.6 2 29 23.2 43.4 45.8 44.3 69.2 1.3 34-25.7 59.6-49.5 82.2-4 3.7-7.8 7.4-11.3 11-12.4 12.3-32 18.5-57 18.5zM1366.8 54.2c-24 0-46 23-65.2 43.2l-11.3 11.7c-18.4 18.5-16.6 67 4.8 123.7 26.5 70 79 146.5 148 215.4 68.8 69 145.2 121.5 215.3 148 56.6 21.3 105.2 23 123.6 4.6 3.6-3.7 7.5-7.4 11.6-11.3 20.7-19.6 44.2-42 43.2-66.7-.7-17-13-35.3-36.8-54.3-71-57-90.8-37-123.7-3.6l-6.5 6.6c-15.7 15.7-41.2 12.2-76-10.3-24-15.7-53.6-41-88.2-75.7-85.3-85.2-112.6-137.4-86-164.2l6.5-6.3c33.6-33 53.8-52.7-3.3-123.7-19-23.7-37.4-36-54.4-36.8h-1.5z"/></g><g fill="#010202"><path d="M1651.7 249.3c-2.6 0-5-1-7-3-4-3.8-4-10.2 0-14.2l195-195c4-4 10.4-4 14.3 0s4 10.3 0 14.2l-195.2 195.2c-2 2-4.5 3-7 3z"/><path d="M1847 203.4c-5.7 0-10.2-4.5-10.2-10V54h-139.2c-5.5 0-10-4.5-10-10s4.5-10.2 10-10.2H1847c5.4 0 10 4.5 10 10v149.3c0 5.6-4.5 10-10 10z"/></g></g></g></g><g><g><g><g><path fill="#FFF" d="M529.4 1273.7c-24.8 0-54.7-6.2-87.6-18.6-72-27-150.6-80.8-221-151.2-70.3-70.3-124-148.8-151.2-221-24.8-65.5-24.8-119.3-.2-144 3.6-3.5 7.2-7.3 11-11.2 22.4-23.6 48.4-50.5 81.5-49 23 1 45.6 15.4 68.6 44 68 84.6 37.4 114.7 2 149.7l-6.4 6.2c-5.8 5.8-16.8 32.7 85.3 134.7 33.3 33.4 61.7 57.7 84.4 72.5 14.2 9.3 39.8 23.3 50.2 12.8l6.3-6.3c35-35.5 65-66 149.7 2 28.6 23 43 45.5 44 68.7 1.3 33.6-25.5 59-49 81.5l-11.4 10.8c-12.2 12.3-31.8 18.4-56.4 18.4zm-370-575.2c-23.8 0-45.5 22.8-64.6 43-3.8 4-7.6 8-11.2 11.5-18.4 18.4-16.5 66.6 4.7 122.8 26.2 69.6 78.4 145.5 146.7 214s144.4 120.4 214 146.6c56 21.2 104.4 23 122.7 4.7l11.6-11c20.5-19.6 44-41.7 43-66.3-.8-17-13-35-36.7-54-70.5-56.6-90-36.6-122.8-3.5l-6.4 6.5c-15.6 15.6-41 12.2-75.4-10.2-23.8-15.5-53.3-40.8-87.7-75-84.7-84.8-111.8-136.7-85.3-163.2l6.4-6.3c33.2-32.7 53.2-52.4-3.4-123-19-23.4-37-35.7-54-36.4h-1.5z"/></g><g fill="#FFF"><path d="M533 924.5c-1.4 0-2.7-.2-4-.7-5-2-7.5-8-5.4-13 12.7-31.4 5.4-67.2-18.5-91.2-24.5-24.6-62.3-31.4-94-17-5 2-11 0-13.3-5-2.3-5.2 0-11 5-13.4 39.2-17.7 86-9.2 116.5 21.3 29.7 29.7 38.7 74 23 112.8-1.6 3.8-5.4 6.2-9.3 6.2z"/><path d="M622.2 960.8c-1.2 0-2.5-.2-3.7-.7-5.2-2-7.7-8-5.5-13 27.3-67.4 11.7-144-39.7-195.6-52.8-52.8-134-67.6-202-36.8-5 2.2-11 0-13.4-5-2.3-5 0-11 5-13.3 75.6-34.2 165.8-17.7 224.4 41 57.2 57 74.5 142.4 44 217.2-1.5 4-5.2 6.3-9.2 6.3z"/></g></g><g><g><path fill="#FFF" d="M1138.2 1273.5c-24.7 0-54.6-6.2-87.5-18.6-72-27.3-150.4-81-220.7-151.2C759.7 1033.5 706 955 678.8 883c-24.8-65.5-24.8-119.3-.2-144l11-11.2c22.3-23.6 48.3-50.7 81.4-49 23.2 1 45.6 15.4 68.7 44 68 84.5 37.3 114.7 2 149.6l-6.4 6.2c-5.8 5.8-16.8 32.7 85.2 134.6 33.3 33.3 61.7 57.7 84.4 72.4 14.2 9.3 39.6 23.4 50.2 13l6.3-6.5c35-35.3 65-65.8 149.5 2 28.6 23 43 45.5 44 68.8 1.3 33.6-25.5 59-49 81.5-4 3.7-7.8 7.3-11.3 10.8-12.3 12.4-32 18.5-56.5 18.5zM768.6 698.8c-24 0-45.5 22.7-64.6 42.8-4 4-7.6 8-11.3 11.6-18.3 18.3-16.4 66.5 4.8 122.7 26.2 69.4 78.3 145.3 146.6 213.6 68.4 68.4 144.3 120.4 213.8 146.6 56.2 21.3 104.4 23 122.7 4.8l11.6-11.3c20.6-19.5 44-41.6 43-66-.8-17-13-35.2-36.6-54-70.4-56.6-90-36.7-122.7-3.6l-6.4 6.6c-15.6 15.6-41 12-75.4-10.2-24-15.5-53.4-40.8-87.7-75-84.6-84.7-111.7-136.5-85.2-163l6.5-6.3c33.2-32.6 53.2-52.3-3.4-122.7-19-23.5-37-35.8-54-36.5h-1.4z"/></g><g fill="#FFF"><path d="M1051.3 892.4c-2.5 0-5-1-7-3-4-3.8-4-10.2 0-14l193.6-193.7c3.8-4 10-4 14 0s4 10.2 0 14l-193.6 193.8c-2 2-4.5 3-7 3z"/><path d="M1199.4 892.4h-148c-5.6 0-10-4.5-10-10v-148c0-5.6 4.4-10 10-10s10 4.4 10 10v138h138c5.5 0 10 4.5 10 10s-4.5 10-10 10z"/></g></g><g><g><path fill="#FFF" d="M1747.3 1274c-25 0-55-6.3-88.2-18.8-72.5-27.3-151.5-81.4-222.4-152.3-70.8-71-125-150-152.4-222.6-25-66-25-120.3 0-145L1295 724c22.7-23.8 48.5-51 82.2-49.4 23.4 1 46 15.5 69.2 44.3 68.5 85 37.6 115.5 2 150.7l-6.4 6.3c-6 5.8-17 33 86 135.7 33.4 33.5 62 58 85 73 14.3 9.3 40 23.4 50.6 13l6.3-6.5c35-35.7 65.5-66.5 150.6 2 29 23 43.4 45.8 44.3 69.2 1.3 34-25.7 59.5-49.5 82l-11.3 11c-12.4 12.4-32 18.6-57 18.6zm-372.5-579.3c-24 0-46 23-65.2 43.2-3.8 4-7.6 8-11.3 11.6-18.4 18.4-16.6 67 4.8 123.7 26.5 70 79 146.5 148 215.4 68.8 68.8 145.2 121.3 215.3 147.7 56.6 21.4 105.2 23.2 123.6 4.8 3.6-3.7 7.5-7.5 11.6-11.3 20.7-19.8 44.2-42 43.2-66.8-.7-17-13-35.3-36.8-54.4-71-57-90.8-37-123.7-3.5l-6.5 6.5c-15.7 15.7-41.2 12.2-76-10.3-24-15.6-53.6-41-88.2-75.6-85.3-85.4-112.6-137.6-86-164.4l6.5-6.3c33.6-33 53.8-52.8-3.3-123.8-19-23.7-37.4-36-54.4-36.7h-1.5z"/></g><g fill="#FFF"><path d="M1659.7 890c-2.6 0-5-1-7-3-4-4-4-10.4 0-14.3l195-195.2c4-4 10.4-4 14.3 0s4 10.3 0 14.3l-195.2 195c-2 2-4.5 3-7 3z"/><path d="M1855 844c-5.7 0-10.2-4.6-10.2-10V694.6h-139.2c-5.5 0-10-4.5-10-10s4.5-10 10-10H1855c5.4 0 10 4.4 10 10v149.2c0 5.5-4.5 10-10 10z"/></g></g></g><g><g><g><pattern id="F" xlink:href="#v" patternTransform="matrix(0 -.7 .7 0 -2520 -11727.5)"/><path fill="url(#F)" d="M529.4 1273.7c-24.8 0-54.7-6.2-87.6-18.6-72-27-150.6-80.8-221-151.2-70.3-70.3-124-148.8-151.2-221-24.8-65.5-24.8-119.3-.2-144 3.6-3.5 7.2-7.3 11-11.2 22.4-23.6 48.4-50.5 81.5-49 23 1 45.6 15.4 68.6 44 68 84.6 37.4 114.7 2 149.7l-6.4 6.2c-5.8 5.8-16.8 32.7 85.3 134.7 33.3 33.4 61.7 57.7 84.4 72.5 14.2 9.3 39.8 23.3 50.2 12.8l6.3-6.3c35-35.5 65-66 149.7 2 28.6 23 43 45.5 44 68.7 1.3 33.6-25.5 59-49 81.5l-11.4 10.8c-12.2 12.3-31.8 18.4-56.4 18.4zm-370-575.2c-23.8 0-45.5 22.8-64.6 43-3.8 4-7.6 8-11.2 11.5-18.4 18.4-16.5 66.6 4.7 122.8 26.2 69.6 78.4 145.5 146.7 214s144.4 120.4 214 146.6c56 21.2 104.4 23 122.7 4.7l11.6-11c20.5-19.6 44-41.7 43-66.3-.8-17-13-35-36.7-54-70.5-56.6-90-36.6-122.8-3.5l-6.4 6.5c-15.6 15.6-41 12.2-75.4-10.2-23.8-15.5-53.3-40.8-87.7-75-84.7-84.8-111.8-136.7-85.3-163.2l6.4-6.3c33.2-32.7 53.2-52.4-3.4-123-19-23.4-37-35.7-54-36.4h-1.5z"/></g><g><pattern id="G" xlink:href="#v" patternTransform="matrix(0 -.7 .7 0 -2520 -11727.5)"/><path fill="url(#G)" d="M533 924.5c-1.4 0-2.7-.2-4-.7-5-2-7.5-8-5.4-13 12.7-31.4 5.4-67.2-18.5-91.2-24.5-24.6-62.3-31.4-94-17-5 2-11 0-13.3-5-2.3-5.2 0-11 5-13.4 39.2-17.7 86-9.2 116.5 21.3 29.7 29.7 38.7 74 23 112.8-1.6 3.8-5.4 6.2-9.3 6.2z"/><pattern id="H" xlink:href="#v" patternTransform="matrix(0 -.7 .7 0 -2520 -11727.5)"/><path fill="url(#H)" d="M622.2 960.8c-1.2 0-2.5-.2-3.7-.7-5.2-2-7.7-8-5.5-13 27.3-67.4 11.7-144-39.7-195.6-52.8-52.8-134-67.6-202-36.8-5 2.2-11 0-13.4-5-2.3-5 0-11 5-13.3 75.6-34.2 165.8-17.7 224.4 41 57.2 57 74.5 142.4 44 217.2-1.5 4-5.2 6.3-9.2 6.3z"/></g></g><g><g><pattern id="I" xlink:href="#v" patternTransform="matrix(0 -.7 .7 0 -2520 -11727.5)"/><path fill="url(#I)" d="M1138.2 1273.5c-24.7 0-54.6-6.2-87.5-18.6-72-27.3-150.4-81-220.7-151.2C759.7 1033.5 706 955 678.8 883c-24.8-65.5-24.8-119.3-.2-144l11-11.2c22.3-23.6 48.3-50.7 81.4-49 23.2 1 45.6 15.4 68.7 44 68 84.5 37.3 114.7 2 149.6l-6.4 6.2c-5.8 5.8-16.8 32.7 85.2 134.6 33.3 33.3 61.7 57.7 84.4 72.4 14.2 9.3 39.6 23.4 50.2 13l6.3-6.5c35-35.3 65-65.8 149.5 2 28.6 23 43 45.5 44 68.8 1.3 33.6-25.5 59-49 81.5-4 3.7-7.8 7.3-11.3 10.8-12.3 12.4-32 18.5-56.5 18.5zM768.6 698.8c-24 0-45.5 22.7-64.6 42.8-4 4-7.6 8-11.3 11.6-18.3 18.3-16.4 66.5 4.8 122.7 26.2 69.4 78.3 145.3 146.6 213.6 68.4 68.4 144.3 120.4 213.8 146.6 56.2 21.3 104.4 23 122.7 4.8l11.6-11.3c20.6-19.5 44-41.6 43-66-.8-17-13-35.2-36.6-54-70.4-56.6-90-36.7-122.7-3.6l-6.4 6.6c-15.6 15.6-41 12-75.4-10.2-24-15.5-53.4-40.8-87.7-75-84.6-84.7-111.7-136.5-85.2-163l6.5-6.3c33.2-32.6 53.2-52.3-3.4-122.7-19-23.5-37-35.8-54-36.5h-1.4z"/></g><g><pattern id="J" xlink:href="#v" patternTransform="matrix(0 -.7 .7 0 -2520 -11727.5)"/><path fill="url(#J)" d="M1051.3 892.4c-2.5 0-5-1-7-3-4-3.8-4-10.2 0-14l193.6-193.7c3.8-4 10-4 14 0s4 10.2 0 14l-193.6 193.8c-2 2-4.5 3-7 3z"/><pattern id="K" xlink:href="#v" patternTransform="matrix(0 -.7 .7 0 -2520 -11727.5)"/><path fill="url(#K)" d="M1199.4 892.4h-148c-5.6 0-10-4.5-10-10v-148c0-5.6 4.4-10 10-10s10 4.4 10 10v138h138c5.5 0 10 4.5 10 10s-4.5 10-10 10z"/></g></g><g><g><pattern id="L" xlink:href="#v" patternTransform="matrix(0 -.7 .7 0 -2520 -11727.5)"/><path fill="url(#L)" d="M1747.3 1274c-25 0-55-6.3-88.2-18.8-72.5-27.3-151.5-81.4-222.4-152.3-70.8-71-125-150-152.4-222.6-25-66-25-120.3 0-145L1295 724c22.7-23.8 48.5-51 82.2-49.4 23.4 1 46 15.5 69.2 44.3 68.5 85 37.6 115.5 2 150.7l-6.4 6.3c-6 5.8-17 33 86 135.7 33.4 33.5 62 58 85 73 14.3 9.3 40 23.4 50.6 13l6.3-6.5c35-35.7 65.5-66.5 150.6 2 29 23 43.4 45.8 44.3 69.2 1.3 34-25.7 59.5-49.5 82l-11.3 11c-12.4 12.4-32 18.6-57 18.6zm-372.5-579.3c-24 0-46 23-65.2 43.2-3.8 4-7.6 8-11.3 11.6-18.4 18.4-16.6 67 4.8 123.7 26.5 70 79 146.5 148 215.4 68.8 68.8 145.2 121.3 215.3 147.7 56.6 21.4 105.2 23.2 123.6 4.8 3.6-3.7 7.5-7.5 11.6-11.3 20.7-19.8 44.2-42 43.2-66.8-.7-17-13-35.3-36.8-54.4-71-57-90.8-37-123.7-3.5l-6.5 6.5c-15.7 15.7-41.2 12.2-76-10.3-24-15.6-53.6-41-88.2-75.6-85.3-85.4-112.6-137.6-86-164.4l6.5-6.3c33.6-33 53.8-52.8-3.3-123.8-19-23.7-37.4-36-54.4-36.7h-1.5z"/></g><g><pattern id="M" xlink:href="#v" patternTransform="matrix(0 -.7 .7 0 -2520 -11727.5)"/><path fill="url(#M)" d="M1659.7 890c-2.6 0-5-1-7-3-4-4-4-10.4 0-14.3l195-195.2c4-4 10.4-4 14.3 0s4 10.3 0 14.3l-195.2 195c-2 2-4.5 3-7 3z"/><pattern id="N" xlink:href="#v" patternTransform="matrix(0 -.7 .7 0 -2520 -11727.5)"/><path fill="url(#N)" d="M1855 844c-5.7 0-10.2-4.6-10.2-10V694.6h-139.2c-5.5 0-10-4.5-10-10s4.5-10 10-10H1855c5.4 0 10 4.4 10 10v149.2c0 5.5-4.5 10-10 10z"/></g></g></g><g><g><g><path fill="#FFF" d="M529.4 1273.7c-24.8 0-54.7-6.2-87.6-18.6-72-27-150.6-80.8-221-151.2-70.3-70.3-124-148.8-151.2-221-24.8-65.5-24.8-119.3-.2-144 3.6-3.5 7.2-7.3 11-11.2 22.4-23.6 48.4-50.5 81.5-49 23 1 45.6 15.4 68.6 44 68 84.6 37.4 114.7 2 149.7l-6.4 6.2c-5.8 5.8-16.8 32.7 85.3 134.7 33.3 33.4 61.7 57.7 84.4 72.5 14.2 9.3 39.8 23.3 50.2 12.8l6.3-6.3c35-35.5 65-66 149.7 2 28.6 23 43 45.5 44 68.7 1.3 33.6-25.5 59-49 81.5l-11.4 10.8c-12.2 12.3-31.8 18.4-56.4 18.4zm-370-575.2c-23.8 0-45.5 22.8-64.6 43-3.8 4-7.6 8-11.2 11.5-18.4 18.4-16.5 66.6 4.7 122.8 26.2 69.6 78.4 145.5 146.7 214s144.4 120.4 214 146.6c56 21.2 104.4 23 122.7 4.7l11.6-11c20.5-19.6 44-41.7 43-66.3-.8-17-13-35-36.7-54-70.5-56.6-90-36.6-122.8-3.5l-6.4 6.5c-15.6 15.6-41 12.2-75.4-10.2-23.8-15.5-53.3-40.8-87.7-75-84.7-84.8-111.8-136.7-85.3-163.2l6.4-6.3c33.2-32.7 53.2-52.4-3.4-123-19-23.4-37-35.7-54-36.4h-1.5z"/></g><g fill="#FFF"><path d="M533 924.5c-1.4 0-2.7-.2-4-.7-5-2-7.5-8-5.4-13 12.7-31.4 5.4-67.2-18.5-91.2-24.5-24.6-62.3-31.4-94-17-5 2-11 0-13.3-5-2.3-5.2 0-11 5-13.4 39.2-17.7 86-9.2 116.5 21.3 29.7 29.7 38.7 74 23 112.8-1.6 3.8-5.4 6.2-9.3 6.2z"/><path d="M622.2 960.8c-1.2 0-2.5-.2-3.7-.7-5.2-2-7.7-8-5.5-13 27.3-67.4 11.7-144-39.7-195.6-52.8-52.8-134-67.6-202-36.8-5 2.2-11 0-13.4-5-2.3-5 0-11 5-13.3 75.6-34.2 165.8-17.7 224.4 41 57.2 57 74.5 142.4 44 217.2-1.5 4-5.2 6.3-9.2 6.3z"/></g></g><g><g><path fill="#FFF" d="M1138.2 1273.5c-24.7 0-54.6-6.2-87.5-18.6-72-27.3-150.4-81-220.7-151.2C759.7 1033.5 706 955 678.8 883c-24.8-65.5-24.8-119.3-.2-144l11-11.2c22.3-23.6 48.3-50.7 81.4-49 23.2 1 45.6 15.4 68.7 44 68 84.5 37.3 114.7 2 149.6l-6.4 6.2c-5.8 5.8-16.8 32.7 85.2 134.6 33.3 33.3 61.7 57.7 84.4 72.4 14.2 9.3 39.6 23.4 50.2 13l6.3-6.5c35-35.3 65-65.8 149.5 2 28.6 23 43 45.5 44 68.8 1.3 33.6-25.5 59-49 81.5-4 3.7-7.8 7.3-11.3 10.8-12.3 12.4-32 18.5-56.5 18.5zM768.6 698.8c-24 0-45.5 22.7-64.6 42.8-4 4-7.6 8-11.3 11.6-18.3 18.3-16.4 66.5 4.8 122.7 26.2 69.4 78.3 145.3 146.6 213.6 68.4 68.4 144.3 120.4 213.8 146.6 56.2 21.3 104.4 23 122.7 4.8l11.6-11.3c20.6-19.5 44-41.6 43-66-.8-17-13-35.2-36.6-54-70.4-56.6-90-36.7-122.7-3.6l-6.4 6.6c-15.6 15.6-41 12-75.4-10.2-24-15.5-53.4-40.8-87.7-75-84.6-84.7-111.7-136.5-85.2-163l6.5-6.3c33.2-32.6 53.2-52.3-3.4-122.7-19-23.5-37-35.8-54-36.5h-1.4z"/></g><g fill="#FFF"><path d="M1051.3 892.4c-2.5 0-5-1-7-3-4-3.8-4-10.2 0-14l193.6-193.7c3.8-4 10-4 14 0s4 10.2 0 14l-193.6 193.8c-2 2-4.5 3-7 3z"/><path d="M1199.4 892.4h-148c-5.6 0-10-4.5-10-10v-148c0-5.6 4.4-10 10-10s10 4.4 10 10v138h138c5.5 0 10 4.5 10 10s-4.5 10-10 10z"/></g></g><g><g><path fill="#FFF" d="M1747.3 1274c-25 0-55-6.3-88.2-18.8-72.5-27.3-151.5-81.4-222.4-152.3-70.8-71-125-150-152.4-222.6-25-66-25-120.3 0-145L1295 724c22.7-23.8 48.5-51 82.2-49.4 23.4 1 46 15.5 69.2 44.3 68.5 85 37.6 115.5 2 150.7l-6.4 6.3c-6 5.8-17 33 86 135.7 33.4 33.5 62 58 85 73 14.3 9.3 40 23.4 50.6 13l6.3-6.5c35-35.7 65.5-66.5 150.6 2 29 23 43.4 45.8 44.3 69.2 1.3 34-25.7 59.5-49.5 82l-11.3 11c-12.4 12.4-32 18.6-57 18.6zm-372.5-579.3c-24 0-46 23-65.2 43.2-3.8 4-7.6 8-11.3 11.6-18.4 18.4-16.6 67 4.8 123.7 26.5 70 79 146.5 148 215.4 68.8 68.8 145.2 121.3 215.3 147.7 56.6 21.4 105.2 23.2 123.6 4.8 3.6-3.7 7.5-7.5 11.6-11.3 20.7-19.8 44.2-42 43.2-66.8-.7-17-13-35.3-36.8-54.4-71-57-90.8-37-123.7-3.5l-6.5 6.5c-15.7 15.7-41.2 12.2-76-10.3-24-15.6-53.6-41-88.2-75.6-85.3-85.4-112.6-137.6-86-164.4l6.5-6.3c33.6-33 53.8-52.8-3.3-123.8-19-23.7-37.4-36-54.4-36.7h-1.5z"/></g><g fill="#FFF"><path d="M1659.7 890c-2.6 0-5-1-7-3-4-4-4-10.4 0-14.3l195-195.2c4-4 10.4-4 14.3 0s4 10.3 0 14.3l-195.2 195c-2 2-4.5 3-7 3z"/><path d="M1855 844c-5.7 0-10.2-4.6-10.2-10V694.6h-139.2c-5.5 0-10-4.5-10-10s4.5-10 10-10H1855c5.4 0 10 4.4 10 10v149.2c0 5.5-4.5 10-10 10z"/></g></g></g></g></svg>